<svg width="40" height="40" viewBox="0 0 40 40" fill="none" xmlns="http://www.w3.org/2000/svg">
<circle cx="20" cy="20" r="20" fill="#D9D9D9"/>
<path d="M13.984 26C13.84 26 13.712 25.952 13.6 25.856C13.504 25.744 13.456 25.616 13.456 25.472C13.456 25.424 13.464 25.368 13.48 25.304C13.512 25.224 13.552 25.152 13.6 25.088L17.656 19.592L13.936 14.432C13.888 14.368 13.848 14.304 13.816 14.24C13.8 14.176 13.792 14.112 13.792 14.048C13.792 13.904 13.84 13.784 13.936 13.688C14.048 13.576 14.176 13.52 14.32 13.52H16.816C17.008 13.52 17.152 13.568 17.248 13.664C17.36 13.76 17.44 13.848 17.488 13.928L19.96 17.288L22.432 13.952C22.496 13.872 22.576 13.784 22.672 13.688C22.768 13.576 22.92 13.52 23.128 13.52H25.504C25.648 13.52 25.768 13.576 25.864 13.688C25.976 13.784 26.032 13.904 26.032 14.048C26.032 14.112 26.024 14.176 26.008 14.24C25.992 14.304 25.952 14.368 25.888 14.432L22.096 19.616L26.2 25.088C26.248 25.152 26.28 25.216 26.296 25.28C26.328 25.344 26.344 25.408 26.344 25.472C26.344 25.616 26.288 25.744 26.176 25.856C26.08 25.952 25.96 26 25.816 26H23.2C23.024 26 22.888 25.96 22.792 25.88C22.696 25.784 22.616 25.696 22.552 25.616L19.888 22.064L17.176 25.616C17.128 25.68 17.056 25.76 16.96 25.856C16.864 25.952 16.72 26 16.528 26H13.984Z" fill="#2B415C"/>
</svg>
