<svg width="61" height="65" viewBox="0 0 61 65" fill="none" xmlns="http://www.w3.org/2000/svg">
<path d="M10.7529 17.9491L30.3035 2L49.854 17.9491V43.012C49.854 44.2206 49.3963 45.3797 48.5816 46.2342C47.7668 47.0888 46.6617 47.5689 45.5095 47.5689H15.0975C13.9452 47.5689 12.8402 47.0888 12.0254 46.2342C11.2107 45.3797 10.7529 44.2206 10.7529 43.012V17.9491Z" stroke="white" stroke-width="4" stroke-linecap="round" stroke-linejoin="round"/>
<path d="M23.7866 47.5689V24.7844H36.8203V47.5689" stroke="white" stroke-width="4" stroke-linecap="round" stroke-linejoin="round"/>
<path d="M1.32 62C1.232 62 1.164 61.976 1.116 61.928C1.068 61.872 1.044 61.804 1.044 61.724V53.888C1.044 53.8 1.068 53.732 1.116 53.684C1.164 53.628 1.232 53.6 1.32 53.6H4.044C4.868 53.6 5.532 53.724 6.036 53.972C6.54 54.22 6.908 54.588 7.14 55.076C7.372 55.556 7.492 56.148 7.5 56.852C7.508 57.212 7.512 57.528 7.512 57.8C7.512 58.072 7.508 58.384 7.5 58.736C7.484 59.472 7.36 60.084 7.128 60.572C6.904 61.052 6.544 61.412 6.048 61.652C5.56 61.884 4.912 62 4.104 62H1.32ZM2.22 60.98H4.044C4.596 60.98 5.036 60.904 5.364 60.752C5.692 60.6 5.928 60.356 6.072 60.02C6.224 59.684 6.304 59.24 6.312 58.688C6.328 58.448 6.336 58.24 6.336 58.064C6.336 57.88 6.336 57.7 6.336 57.524C6.336 57.34 6.328 57.132 6.312 56.9C6.296 56.124 6.112 55.552 5.76 55.184C5.408 54.808 4.816 54.62 3.984 54.62H2.22V60.98ZM10.9014 62.12C10.5014 62.12 10.1374 62.04 9.80944 61.88C9.48144 61.72 9.21744 61.504 9.01744 61.232C8.81744 60.96 8.71744 60.652 8.71744 60.308C8.71744 59.756 8.94144 59.316 9.38944 58.988C9.83744 58.66 10.4214 58.444 11.1414 58.34L12.9294 58.088V57.74C12.9294 57.356 12.8174 57.056 12.5934 56.84C12.3774 56.624 12.0214 56.516 11.5254 56.516C11.1654 56.516 10.8734 56.588 10.6494 56.732C10.4334 56.876 10.2814 57.06 10.1934 57.284C10.1454 57.404 10.0614 57.464 9.94144 57.464H9.40144C9.31344 57.464 9.24544 57.44 9.19744 57.392C9.15744 57.336 9.13744 57.272 9.13744 57.2C9.13744 57.08 9.18144 56.932 9.26944 56.756C9.36544 56.58 9.50944 56.408 9.70144 56.24C9.89344 56.072 10.1374 55.932 10.4334 55.82C10.7374 55.7 11.1054 55.64 11.5374 55.64C12.0174 55.64 12.4214 55.704 12.7494 55.832C13.0774 55.952 13.3334 56.116 13.5174 56.324C13.7094 56.532 13.8454 56.768 13.9254 57.032C14.0134 57.296 14.0574 57.564 14.0574 57.836V61.724C14.0574 61.804 14.0294 61.872 13.9734 61.928C13.9254 61.976 13.8614 62 13.7814 62H13.2294C13.1414 62 13.0734 61.976 13.0254 61.928C12.9774 61.872 12.9534 61.804 12.9534 61.724V61.208C12.8494 61.352 12.7094 61.496 12.5334 61.64C12.3574 61.776 12.1374 61.892 11.8734 61.988C11.6094 62.076 11.2854 62.12 10.9014 62.12ZM11.1534 61.22C11.4814 61.22 11.7814 61.152 12.0534 61.016C12.3254 60.872 12.5374 60.652 12.6894 60.356C12.8494 60.06 12.9294 59.688 12.9294 59.24V58.904L11.5374 59.108C10.9694 59.188 10.5414 59.324 10.2534 59.516C9.96544 59.7 9.82144 59.936 9.82144 60.224C9.82144 60.448 9.88544 60.636 10.0134 60.788C10.1494 60.932 10.3174 61.04 10.5174 61.112C10.7254 61.184 10.9374 61.22 11.1534 61.22ZM17.9425 62.12C17.4945 62.12 17.1105 62.064 16.7905 61.952C16.4705 61.84 16.2105 61.704 16.0105 61.544C15.8105 61.384 15.6585 61.224 15.5545 61.064C15.4585 60.904 15.4065 60.776 15.3985 60.68C15.3905 60.592 15.4185 60.524 15.4825 60.476C15.5465 60.428 15.6105 60.404 15.6745 60.404H16.2025C16.2505 60.404 16.2865 60.412 16.3105 60.428C16.3425 60.436 16.3825 60.468 16.4305 60.524C16.5345 60.636 16.6505 60.748 16.7785 60.86C16.9065 60.972 17.0625 61.064 17.2465 61.136C17.4385 61.208 17.6745 61.244 17.9545 61.244C18.3625 61.244 18.6985 61.168 18.9625 61.016C19.2265 60.856 19.3585 60.624 19.3585 60.32C19.3585 60.12 19.3025 59.96 19.1905 59.84C19.0865 59.72 18.8945 59.612 18.6145 59.516C18.3425 59.42 17.9665 59.32 17.4865 59.216C17.0065 59.104 16.6265 58.968 16.3465 58.808C16.0665 58.64 15.8665 58.444 15.7465 58.22C15.6265 57.988 15.5665 57.728 15.5665 57.44C15.5665 57.144 15.6545 56.86 15.8305 56.588C16.0065 56.308 16.2625 56.08 16.5985 55.904C16.9425 55.728 17.3705 55.64 17.8825 55.64C18.2985 55.64 18.6545 55.692 18.9505 55.796C19.2465 55.9 19.4905 56.032 19.6825 56.192C19.8745 56.344 20.0185 56.496 20.1145 56.648C20.2105 56.8 20.2625 56.928 20.2705 57.032C20.2785 57.112 20.2545 57.18 20.1985 57.236C20.1425 57.284 20.0785 57.308 20.0065 57.308H19.5025C19.4465 57.308 19.3985 57.296 19.3585 57.272C19.3265 57.248 19.2945 57.22 19.2625 57.188C19.1825 57.084 19.0865 56.98 18.9745 56.876C18.8705 56.772 18.7305 56.688 18.5545 56.624C18.3865 56.552 18.1625 56.516 17.8825 56.516C17.4825 56.516 17.1825 56.6 16.9825 56.768C16.7825 56.936 16.6825 57.148 16.6825 57.404C16.6825 57.556 16.7265 57.692 16.8145 57.812C16.9025 57.932 17.0705 58.04 17.3185 58.136C17.5665 58.232 17.9345 58.336 18.4225 58.448C18.9505 58.552 19.3665 58.692 19.6705 58.868C19.9745 59.044 20.1905 59.248 20.3185 59.48C20.4465 59.712 20.5105 59.98 20.5105 60.284C20.5105 60.62 20.4105 60.928 20.2105 61.208C20.0185 61.488 19.7305 61.712 19.3465 61.88C18.9705 62.04 18.5025 62.12 17.9425 62.12ZM22.1877 62C22.1077 62 22.0397 61.976 21.9837 61.928C21.9357 61.872 21.9117 61.804 21.9117 61.724V53.756C21.9117 53.676 21.9357 53.612 21.9837 53.564C22.0397 53.508 22.1077 53.48 22.1877 53.48H22.7877C22.8757 53.48 22.9437 53.508 22.9917 53.564C23.0397 53.612 23.0637 53.676 23.0637 53.756V56.552C23.2797 56.28 23.5437 56.06 23.8557 55.892C24.1677 55.724 24.5637 55.64 25.0437 55.64C25.5637 55.64 26.0037 55.756 26.3637 55.988C26.7317 56.212 27.0077 56.528 27.1917 56.936C27.3837 57.336 27.4797 57.804 27.4797 58.34V61.724C27.4797 61.804 27.4557 61.872 27.4077 61.928C27.3597 61.976 27.2917 62 27.2037 62H26.6037C26.5237 62 26.4557 61.976 26.3997 61.928C26.3517 61.872 26.3277 61.804 26.3277 61.724V58.4C26.3277 57.84 26.1917 57.404 25.9197 57.092C25.6477 56.772 25.2477 56.612 24.7197 56.612C24.2237 56.612 23.8237 56.772 23.5197 57.092C23.2157 57.404 23.0637 57.84 23.0637 58.4V61.724C23.0637 61.804 23.0397 61.872 22.9917 61.928C22.9437 61.976 22.8757 62 22.7877 62H22.1877ZM32.2962 62.12C31.8162 62.12 31.4162 62.036 31.0962 61.868C30.7762 61.692 30.5202 61.476 30.3282 61.22V61.724C30.3282 61.804 30.3002 61.872 30.2442 61.928C30.1962 61.976 30.1322 62 30.0522 62H29.5002C29.4202 62 29.3522 61.976 29.2962 61.928C29.2482 61.872 29.2242 61.804 29.2242 61.724V53.756C29.2242 53.676 29.2482 53.612 29.2962 53.564C29.3522 53.508 29.4202 53.48 29.5002 53.48H30.0762C30.1642 53.48 30.2322 53.508 30.2802 53.564C30.3282 53.612 30.3522 53.676 30.3522 53.756V56.516C30.5522 56.268 30.8082 56.06 31.1202 55.892C31.4402 55.724 31.8322 55.64 32.2962 55.64C32.7442 55.64 33.1242 55.72 33.4362 55.88C33.7562 56.032 34.0162 56.244 34.2162 56.516C34.4242 56.788 34.5802 57.096 34.6842 57.44C34.7882 57.784 34.8442 58.144 34.8522 58.52C34.8602 58.648 34.8642 58.768 34.8642 58.88C34.8642 58.992 34.8602 59.112 34.8522 59.24C34.8442 59.624 34.7882 59.988 34.6842 60.332C34.5802 60.676 34.4242 60.984 34.2162 61.256C34.0162 61.52 33.7562 61.732 33.4362 61.892C33.1242 62.044 32.7442 62.12 32.2962 62.12ZM32.0442 61.148C32.4602 61.148 32.7842 61.06 33.0162 60.884C33.2562 60.7 33.4282 60.464 33.5322 60.176C33.6362 59.88 33.6962 59.564 33.7122 59.228C33.7202 58.996 33.7202 58.764 33.7122 58.532C33.6962 58.196 33.6362 57.884 33.5322 57.596C33.4282 57.3 33.2562 57.064 33.0162 56.888C32.7842 56.704 32.4602 56.612 32.0442 56.612C31.6682 56.612 31.3562 56.7 31.1082 56.876C30.8602 57.052 30.6722 57.276 30.5442 57.548C30.4242 57.82 30.3602 58.096 30.3522 58.376C30.3442 58.504 30.3402 58.66 30.3402 58.844C30.3402 59.02 30.3442 59.172 30.3522 59.3C30.3682 59.596 30.4322 59.888 30.5442 60.176C30.6642 60.456 30.8442 60.688 31.0842 60.872C31.3322 61.056 31.6522 61.148 32.0442 61.148ZM38.9049 62.12C38.2969 62.12 37.7889 62.004 37.3809 61.772C36.9729 61.54 36.6609 61.22 36.4449 60.812C36.2289 60.396 36.1089 59.924 36.0849 59.396C36.0769 59.26 36.0729 59.088 36.0729 58.88C36.0729 58.664 36.0769 58.492 36.0849 58.364C36.1089 57.828 36.2289 57.356 36.4449 56.948C36.6689 56.54 36.9849 56.22 37.3929 55.988C37.8009 55.756 38.3049 55.64 38.9049 55.64C39.5049 55.64 40.0089 55.756 40.4169 55.988C40.8249 56.22 41.1369 56.54 41.3529 56.948C41.5769 57.356 41.7009 57.828 41.7249 58.364C41.7329 58.492 41.7369 58.664 41.7369 58.88C41.7369 59.088 41.7329 59.26 41.7249 59.396C41.7009 59.924 41.5809 60.396 41.3649 60.812C41.1489 61.22 40.8369 61.54 40.4289 61.772C40.0209 62.004 39.5129 62.12 38.9049 62.12ZM38.9049 61.196C39.4009 61.196 39.7969 61.04 40.0929 60.728C40.3889 60.408 40.5489 59.944 40.5729 59.336C40.5809 59.216 40.5849 59.064 40.5849 58.88C40.5849 58.696 40.5809 58.544 40.5729 58.424C40.5489 57.816 40.3889 57.356 40.0929 57.044C39.7969 56.724 39.4009 56.564 38.9049 56.564C38.4089 56.564 38.0089 56.724 37.7049 57.044C37.4089 57.356 37.2529 57.816 37.2369 58.424C37.2289 58.544 37.2249 58.696 37.2249 58.88C37.2249 59.064 37.2289 59.216 37.2369 59.336C37.2529 59.944 37.4089 60.408 37.7049 60.728C38.0089 61.04 38.4089 61.196 38.9049 61.196ZM44.9796 62.12C44.5796 62.12 44.2156 62.04 43.8876 61.88C43.5596 61.72 43.2956 61.504 43.0956 61.232C42.8956 60.96 42.7956 60.652 42.7956 60.308C42.7956 59.756 43.0196 59.316 43.4676 58.988C43.9156 58.66 44.4996 58.444 45.2196 58.34L47.0076 58.088V57.74C47.0076 57.356 46.8956 57.056 46.6716 56.84C46.4556 56.624 46.0996 56.516 45.6036 56.516C45.2436 56.516 44.9516 56.588 44.7276 56.732C44.5116 56.876 44.3596 57.06 44.2716 57.284C44.2236 57.404 44.1396 57.464 44.0196 57.464H43.4796C43.3916 57.464 43.3236 57.44 43.2756 57.392C43.2356 57.336 43.2156 57.272 43.2156 57.2C43.2156 57.08 43.2596 56.932 43.3476 56.756C43.4436 56.58 43.5876 56.408 43.7796 56.24C43.9716 56.072 44.2156 55.932 44.5116 55.82C44.8156 55.7 45.1836 55.64 45.6156 55.64C46.0956 55.64 46.4996 55.704 46.8276 55.832C47.1556 55.952 47.4116 56.116 47.5956 56.324C47.7876 56.532 47.9236 56.768 48.0036 57.032C48.0916 57.296 48.1356 57.564 48.1356 57.836V61.724C48.1356 61.804 48.1076 61.872 48.0516 61.928C48.0036 61.976 47.9396 62 47.8596 62H47.3076C47.2196 62 47.1516 61.976 47.1036 61.928C47.0556 61.872 47.0316 61.804 47.0316 61.724V61.208C46.9276 61.352 46.7876 61.496 46.6116 61.64C46.4356 61.776 46.2156 61.892 45.9516 61.988C45.6876 62.076 45.3636 62.12 44.9796 62.12ZM45.2316 61.22C45.5596 61.22 45.8596 61.152 46.1316 61.016C46.4036 60.872 46.6156 60.652 46.7676 60.356C46.9276 60.06 47.0076 59.688 47.0076 59.24V58.904L45.6156 59.108C45.0476 59.188 44.6196 59.324 44.3316 59.516C44.0436 59.7 43.8996 59.936 43.8996 60.224C43.8996 60.448 43.9636 60.636 44.0916 60.788C44.2276 60.932 44.3956 61.04 44.5956 61.112C44.8036 61.184 45.0156 61.22 45.2316 61.22ZM50.1367 62C50.0567 62 49.9887 61.976 49.9327 61.928C49.8847 61.872 49.8607 61.804 49.8607 61.724V56.048C49.8607 55.968 49.8847 55.9 49.9327 55.844C49.9887 55.788 50.0567 55.76 50.1367 55.76H50.6887C50.7687 55.76 50.8367 55.788 50.8927 55.844C50.9487 55.9 50.9767 55.968 50.9767 56.048V56.576C51.1367 56.304 51.3567 56.1 51.6367 55.964C51.9167 55.828 52.2527 55.76 52.6447 55.76H53.1247C53.2047 55.76 53.2687 55.788 53.3167 55.844C53.3647 55.892 53.3887 55.956 53.3887 56.036V56.528C53.3887 56.608 53.3647 56.672 53.3167 56.72C53.2687 56.768 53.2047 56.792 53.1247 56.792H52.4047C51.9727 56.792 51.6327 56.92 51.3847 57.176C51.1367 57.424 51.0127 57.764 51.0127 58.196V61.724C51.0127 61.804 50.9847 61.872 50.9287 61.928C50.8727 61.976 50.8047 62 50.7247 62H50.1367ZM56.5703 62.12C56.1303 62.12 55.7503 62.044 55.4303 61.892C55.1103 61.732 54.8463 61.52 54.6383 61.256C54.4383 60.984 54.2863 60.676 54.1823 60.332C54.0863 59.988 54.0303 59.624 54.0143 59.24C54.0063 59.112 54.0023 58.992 54.0023 58.88C54.0023 58.768 54.0063 58.648 54.0143 58.52C54.0303 58.144 54.0863 57.784 54.1823 57.44C54.2863 57.096 54.4383 56.788 54.6383 56.516C54.8463 56.244 55.1103 56.032 55.4303 55.88C55.7503 55.72 56.1303 55.64 56.5703 55.64C57.0423 55.64 57.4343 55.724 57.7463 55.892C58.0583 56.06 58.3143 56.268 58.5143 56.516V53.756C58.5143 53.676 58.5383 53.612 58.5863 53.564C58.6423 53.508 58.7103 53.48 58.7903 53.48H59.3663C59.4463 53.48 59.5103 53.508 59.5583 53.564C59.6143 53.612 59.6423 53.676 59.6423 53.756V61.724C59.6423 61.804 59.6143 61.872 59.5583 61.928C59.5103 61.976 59.4463 62 59.3663 62H58.8263C58.7383 62 58.6703 61.976 58.6223 61.928C58.5743 61.872 58.5503 61.804 58.5503 61.724V61.22C58.3503 61.476 58.0903 61.692 57.7703 61.868C57.4503 62.036 57.0503 62.12 56.5703 62.12ZM56.8223 61.148C57.2223 61.148 57.5423 61.056 57.7823 60.872C58.0223 60.688 58.2023 60.456 58.3223 60.176C58.4423 59.888 58.5063 59.596 58.5143 59.3C58.5223 59.172 58.5263 59.02 58.5263 58.844C58.5263 58.66 58.5223 58.504 58.5143 58.376C58.5063 58.096 58.4383 57.82 58.3103 57.548C58.1903 57.276 58.0063 57.052 57.7583 56.876C57.5183 56.7 57.2063 56.612 56.8223 56.612C56.4143 56.612 56.0903 56.704 55.8503 56.888C55.6103 57.064 55.4383 57.3 55.3343 57.596C55.2303 57.884 55.1703 58.196 55.1543 58.532C55.1463 58.764 55.1463 58.996 55.1543 59.228C55.1703 59.564 55.2303 59.88 55.3343 60.176C55.4383 60.464 55.6103 60.7 55.8503 60.884C56.0903 61.06 56.4143 61.148 56.8223 61.148Z" fill="white"/>
</svg>
