<svg width="630" height="483" viewBox="0 0 630 483" fill="none" xmlns="http://www.w3.org/2000/svg">
<g clip-path="url(#clip0_529_373)">
<rect width="630" height="483" rx="40" fill="white"/>
<rect width="630" height="630" transform="translate(0 -73)" fill="white"/>
<path fill-rule="evenodd" clip-rule="evenodd" d="M501.629 101.292C420.215 54.5734 356.737 191.71 310.631 208.974C217.711 243.767 45.1192 274.027 78.0341 341.67C123.229 434.547 280.48 443.814 392.934 434.547C539.201 422.494 661.695 193.146 501.629 101.292Z" fill="#055941"/>
<path fill-rule="evenodd" clip-rule="evenodd" d="M489.823 250.988C490.662 251.728 490.948 252.887 491.157 253.995L492.433 260.954C492.61 261.922 493.422 262.38 493.735 261.829C494.066 261.246 494.95 261.488 495.542 261.803L502.935 265.737C500.42 267.543 497.452 268.713 494.381 269.109C492.867 269.305 492.623 271.378 492.784 272.896L493.222 277.025C493.358 278.312 491.334 278.749 490.323 277.942C489.312 277.135 488.928 275.783 488.131 274.764C486.844 273.117 484.569 272.503 482.488 272.693C480.406 272.884 478.457 273.757 476.552 274.617C475.324 275.172 473.974 273.703 474.07 272.358C474.154 271.173 474.913 270.178 475.686 269.253L475.995 268.886C476.863 267.855 477.731 266.634 477.584 265.294C477.462 264.179 476.666 263.28 475.867 262.478L475.399 262.009C474.659 261.252 473.956 260.411 473.826 259.375C473.677 258.192 474.757 256.831 475.892 257.197C480.261 258.61 485.523 255.856 486.852 251.461C487.198 250.319 488.929 250.199 489.823 250.988Z" fill="white"/>
<path fill-rule="evenodd" clip-rule="evenodd" d="M489.823 250.988C490.662 251.728 490.948 252.887 491.157 253.995L492.433 260.954C492.61 261.922 492.221 263.42 491.297 263.082C489.981 260.292 489.282 257.215 489.261 254.131C488.76 253.649 488.013 254.366 487.7 254.988L484.581 261.203C484.031 262.298 482.391 262.056 481.309 261.484L480.729 261.177C479.79 260.69 478.767 260.258 477.876 260.739C477.422 262.1 479.442 262.778 480.491 263.758C481.688 264.877 481.617 266.886 480.78 268.294C479.943 269.703 478.529 270.652 477.161 271.554C479.126 271.878 481.222 271.304 482.748 270.023C483.437 269.445 484.068 268.702 484.949 268.518C486.312 268.233 487.536 269.414 488.243 270.614C488.95 271.813 489.51 273.217 490.719 273.908C491.324 272.955 491 271.759 490.619 270.656L490.438 270.143C490.001 268.911 489.804 267.279 490.877 266.531C491.28 266.25 491.78 266.168 492.273 266.114L497.546 265.586L494.508 263.373C493.997 263 493.422 262.38 493.735 261.829C494.066 261.246 494.95 261.488 495.542 261.803L502.935 265.737C500.42 267.543 497.452 268.713 494.381 269.109C492.867 269.305 492.623 271.378 492.784 272.896L493.222 277.025C493.358 278.312 491.334 278.749 490.323 277.942C489.312 277.135 488.928 275.783 488.131 274.764C486.844 273.117 484.569 272.503 482.488 272.693C480.406 272.884 478.457 273.757 476.552 274.617C475.324 275.172 473.974 273.703 474.07 272.358C474.154 271.173 474.913 270.178 475.686 269.253L475.995 268.886C476.863 267.855 477.731 266.634 477.584 265.294C477.462 264.179 476.666 263.28 475.867 262.478L475.399 262.009C474.659 261.252 473.956 260.411 473.826 259.375C473.677 258.192 474.757 256.831 475.892 257.197C480.261 258.61 485.523 255.856 486.852 251.461C487.198 250.319 488.929 250.199 489.823 250.988Z" fill="#120032"/>
<path fill-rule="evenodd" clip-rule="evenodd" d="M198.933 126.187C195.769 112.127 204.388 88.7878 219.789 79.4037C235.189 70.0196 254.888 69.3768 272.04 74.9495C271.493 58.3804 288.297 44.1623 304.818 45.5313C321.34 46.9002 335.048 61.7333 337.267 78.1621C338.997 90.9631 332.426 106.211 319.718 108.529C324.21 124.579 326.708 141.465 324.242 157.947C321.777 174.43 313.933 190.531 300.695 200.656C297.041 205.572 299.801 212.988 304.613 216.779C309.424 220.571 315.651 221.903 321.408 223.996C345.532 232.763 362.516 256.563 366.475 281.923C370.434 307.283 362.526 333.584 348.236 354.905C338.447 369.509 325.132 382.478 308.472 388.094C285.089 395.978 259.451 388.302 236.745 378.639C228.089 374.956 219.275 370.77 213.165 363.618C206.615 355.951 194.236 360.092 185.308 364.781C191.244 367.244 197.18 369.707 203.116 372.17C204.392 372.699 205.776 373.328 206.367 374.576C207.612 377.202 204.545 379.73 201.949 381.037C199.159 382.442 196.369 383.847 193.579 385.252C176.454 393.876 158.619 402.686 139.453 403.219C118.498 403.801 98.7044 394.435 79.8458 385.282C77.7496 384.265 75.5276 383.132 74.3879 381.1C73.2481 379.068 73.8852 375.898 76.1378 375.303C97.294 369.708 117.324 359.888 134.704 346.591C133.374 338.313 133.688 329.774 135.62 321.616C135.9 320.436 136.302 319.143 137.354 318.539C139.939 317.053 142.184 320.966 142.641 323.912C143.794 331.349 144.947 338.786 146.1 346.222C159.945 344.691 173.381 339.605 184.771 331.586C175.888 324.432 167.005 317.279 158.122 310.125C152.996 305.997 148.049 303.528 145.281 295.445C143.435 290.057 144.925 284.522 149.749 278.84C144.364 252.002 142.007 231.771 142.68 218.147C142.859 214.51 143.266 210.584 145.714 207.889C150.035 203.131 158.519 205.183 162.463 210.257C166.407 215.332 167.067 222.142 167.577 228.549C182.593 226.714 197.61 224.88 212.626 223.045C218.12 222.374 223.809 221.718 229.097 223.353C235.732 225.405 241.06 231.215 242.53 238.002C248.867 236.289 255.769 234.18 259.347 228.677C262.926 223.174 259.895 213.604 253.337 213.887C232.824 214.775 212.762 199.553 208.093 179.559C206.906 174.473 206.444 168.822 202.874 165.011C197.217 158.972 192.907 151.186 192.935 142.911C192.962 134.636 196.429 133.649 198.933 126.187ZM76.4845 380.846C76.9464 381.536 77.7525 381.898 78.516 382.224C86.3493 385.577 94.1827 388.929 102.016 392.282C105.58 393.807 109.156 395.337 112.884 396.403C123.279 399.377 134.481 398.652 144.816 401.827C146.07 402.212 147.416 401.815 148.664 401.413C157.679 398.509 166.587 395.276 175.366 391.723C184.55 388.006 193.652 383.905 201.806 378.276C202.548 377.764 203.318 377.195 203.657 376.36C203.995 375.525 203.683 374.363 202.816 374.117C197.313 372.553 191.889 370.71 186.574 368.595C184.865 367.915 182.941 366.946 182.578 365.143C177.895 365.331 173.8 368.284 170.346 371.452C166.892 374.62 163.647 378.197 159.391 380.159C155.135 382.121 149.422 381.952 146.474 378.309C146.159 377.92 145.843 377.472 145.358 377.346C144.874 377.219 144.252 377.701 144.478 378.148C145.062 379.306 143.807 380.769 142.513 380.688C141.219 380.608 140.207 379.429 139.888 378.172C139.57 376.916 137.841 379.161 135.335 379.534C132.829 379.908 130.171 378.3 129.338 375.907C128.652 373.935 125.963 373.9 123.908 373.531C119.235 372.692 115.687 367.796 116.344 363.094C102.914 367.572 89.7285 372.781 76.8637 378.689C76.109 379.036 76.0227 380.156 76.4845 380.846Z" fill="white"/>
<path d="M265.02 187.4C268.963 187.4 272.16 184.203 272.16 180.26C272.16 176.317 268.963 173.12 265.02 173.12C261.077 173.12 257.88 176.317 257.88 180.26C257.88 184.203 261.077 187.4 265.02 187.4Z" fill="#055941" fill-opacity="0.56"/>
<path d="M215.46 181.52C217.548 181.52 219.24 179.828 219.24 177.74C219.24 175.652 217.548 173.96 215.46 173.96C213.372 173.96 211.68 175.652 211.68 177.74C211.68 179.828 213.372 181.52 215.46 181.52Z" fill="#055941" fill-opacity="0.56"/>
<path fill-rule="evenodd" clip-rule="evenodd" d="M299.117 208.916C299.771 212.31 301.715 215.598 304.302 217.637C309.114 221.428 319.928 225.332 325.686 227.425C326.209 227.615 323.256 229.283 319.442 232.972C309.118 242.959 286.545 260.843 264.493 251.856C261.915 250.806 259.76 249.596 258.004 248.314C256.387 247.133 271.234 248.835 285.114 246.203C299.07 243.557 312.054 236.567 308.579 231.025C305.312 225.816 296.124 216.993 295.408 211.803C294.453 204.889 298.554 205.999 299.117 208.916Z" fill="#E7EAEE"/>
<path fill-rule="evenodd" clip-rule="evenodd" d="M76.2011 378.882C76.2011 376.113 84.9345 373.872 99.8644 368.256C110.133 364.393 130.148 353.216 139.996 352.696C146.549 352.35 172.735 361.936 189.825 368.822C198.419 372.284 205.047 374.452 205.047 375.563C205.047 377.794 186.802 388.564 168.153 395.643C159.051 399.098 150.512 402.193 142.68 401.984C118.803 401.347 76.2011 385.894 76.2011 378.882Z" fill="white"/>
<path fill-rule="evenodd" clip-rule="evenodd" d="M413.517 148.838C379.278 163.462 350.674 188.45 323.422 213.861L321.755 215.417C320.165 216.903 317.752 218.457 316.036 217.118L321.332 212.297C349.04 187.122 377.688 162.16 411.971 147.329C438.329 135.927 438.049 138.361 413.517 148.838ZM266.034 392.425L282.096 409.92C282.883 410.777 283.703 411.697 283.923 412.84C284.143 413.983 283.481 415.378 282.323 415.499L249.253 418.958C243.761 419.532 238.159 415.724 236.577 410.432C234.996 405.141 237.527 398.942 242.311 396.183C247.095 393.423 253.657 394.294 257.628 398.132C258.612 399.082 260.34 398.275 261.038 397.098C261.736 395.922 261.887 394.479 262.609 393.317C263.33 392.155 265.109 391.417 266.034 392.425ZM239.366 402.523C237.315 406.415 238.612 411.687 242.122 414.338C243.842 415.638 245.954 416.334 248.082 416.678C251.088 417.162 254.575 416.795 256.508 414.443C257.213 413.584 257.646 412.531 257.941 411.459C258.923 407.892 258.424 403.941 256.585 400.731C256.084 399.857 255.314 398.945 254.308 398.988C253.83 399.009 253.386 399.251 252.91 399.3C252.118 399.381 251.384 398.929 250.662 398.593C246.674 396.736 241.417 398.631 239.366 402.523ZM264.607 395.934C263.976 398.567 262.669 401.035 260.847 403.037C260.333 403.601 260.459 404.473 260.563 405.228C261.07 408.907 260.232 412.756 258.243 415.892C261.503 415.12 264.837 414.658 268.185 414.516C272.773 414.321 277.561 414.689 281.766 412.843C279.52 411.865 277.612 410.126 276.432 407.978C275.739 406.715 274.779 405.622 273.827 404.54L266.513 396.23C265.985 395.63 264.794 395.156 264.607 395.934ZM181.556 395.776C182.604 399.051 186.549 400.173 189.966 400.763L212.77 404.571C218.043 405.451 223.455 406.331 228.699 405.291C229.688 405.095 230.211 406.666 229.558 407.435C228.906 408.204 227.77 408.295 226.761 408.298C222.193 408.314 217.651 407.706 213.129 407.027L208.313 406.293C199.789 404.982 191.27 403.588 182.927 401.417C181.498 401.045 180.019 400.62 178.926 399.629C177.833 398.638 177.264 396.906 178.033 395.647C178.803 394.388 181.105 394.371 181.556 395.776ZM304.818 45.5313C321.34 46.9002 335.048 61.7333 337.267 78.1621C338.997 90.9631 332.426 106.211 319.718 108.529C324.21 124.579 326.708 141.465 324.242 157.947C321.777 174.43 313.933 190.531 300.695 200.656C297.041 205.572 299.801 212.988 304.613 216.779C309.424 220.571 315.651 221.903 321.408 223.996C345.532 232.763 362.516 256.563 366.475 281.923C370.434 307.283 362.526 333.584 348.236 354.905C338.447 369.509 325.132 382.478 308.472 388.094C285.323 395.899 259.963 388.454 237.427 378.929L236.745 378.639C228.27 375.033 219.642 370.944 213.55 364.061L213.165 363.618C206.615 355.951 194.236 360.092 185.308 364.781L203.116 372.17C204.392 372.699 205.776 373.328 206.367 374.576C207.612 377.202 204.545 379.73 201.949 381.037L191.493 386.301C175.006 394.576 157.842 402.708 139.453 403.219C118.742 403.794 99.1649 394.652 80.504 385.601L79.3198 385.025C77.3868 384.07 75.4326 382.963 74.3879 381.1C73.2481 379.068 73.8852 375.898 76.1378 375.303C97.294 369.708 117.324 359.888 134.704 346.591C133.374 338.313 133.688 329.774 135.62 321.616L135.719 321.22C135.997 320.157 136.419 319.075 137.354 318.539C139.939 317.054 142.184 320.966 142.641 323.912L146.1 346.222C159.945 344.691 173.381 339.605 184.771 331.586L157.405 309.547C152.506 305.583 147.545 301.297 145.281 295.445C142.906 289.308 144.817 280.989 150.954 278.614C151.438 255.365 150.213 232.082 147.291 209.013C143.25 232.053 146.497 255.675 149.749 278.84C144.174 259.54 141.759 239.332 142.628 219.262L142.68 218.147C142.859 214.51 143.266 210.584 145.714 207.889C150.035 203.131 158.519 205.183 162.463 210.257C166.407 215.332 167.067 222.142 167.577 228.549L213.658 222.92C218.83 222.301 224.14 221.82 229.097 223.353C235.732 225.405 241.06 231.215 242.53 238.002L243.611 237.706C249.637 236.039 255.971 233.868 259.347 228.677C262.888 223.233 259.958 213.807 253.545 213.882L253.337 213.887C232.824 214.775 212.762 199.553 208.093 179.559C206.906 174.473 206.444 168.822 202.874 165.011C197.217 158.972 192.907 151.186 192.935 142.911C192.962 134.636 198.239 126.103 206.274 124.124C214.309 122.146 223.818 128.85 223.125 137.096C227.023 136.699 231.01 137.206 234.685 138.567C232.59 132.917 238.021 126.681 243.991 125.861C249.961 125.041 255.778 128.022 260.743 131.438C265.708 134.853 270.451 138.874 276.223 140.606L276.489 139.99C277.682 137.205 278.781 134.23 278.18 131.286C277.534 128.123 273.971 125.389 271.087 126.836C269.062 121.035 265.839 115.654 261.681 111.129L250.124 116.578C248.635 114.348 247.723 111.736 247.5 109.064C239.869 113.425 231.587 116.643 223.014 118.579L223.891 112.033L198.272 125.34C194.489 107.707 204.388 88.7878 219.789 79.4037C235.189 70.0196 254.888 69.3768 272.04 74.9495C271.493 58.3804 288.297 44.1623 304.818 45.5313ZM430.854 332.93C416.095 336.492 401.767 341.839 388.284 348.819L387.309 349.328C379.838 353.265 372.504 357.981 367.821 364.98C370.983 364.431 374.36 365.256 376.914 367.2C378.527 368.427 379.875 370.268 379.779 372.293C379.729 373.343 379.293 374.345 378.705 375.216C376.408 378.62 371.543 380.002 367.8 378.314C364.056 376.627 361.869 372.068 362.897 368.092C347.014 373.515 333.36 385.182 325.51 400.015L325.247 400.516C324.861 401.263 324.388 402.098 323.568 402.284C322.44 402.539 321.436 401.28 321.488 400.125C321.539 398.97 322.279 397.975 322.995 397.066C332.251 385.313 343.067 374.126 356.91 368.453L357.953 368.034C361.218 366.739 364.636 365.467 366.745 362.705C371.86 356.004 379.223 351.405 386.7 347.512C393.392 344.028 400.314 340.986 407.407 338.414C414.524 335.832 421.801 333.726 429.094 331.686L453.799 324.807C447.117 329.503 438.793 331.014 430.854 332.93ZM116.344 363.094C102.914 367.572 89.7285 372.781 76.8637 378.689C76.109 379.036 76.0227 380.156 76.4845 380.846C76.9464 381.536 77.7525 381.898 78.516 382.224L102.016 392.282C105.58 393.807 109.156 395.337 112.884 396.403C123.279 399.377 134.481 398.652 144.816 401.827C146.07 402.212 147.416 401.815 148.664 401.413C157.679 398.509 166.587 395.276 175.366 391.723C184.55 388.006 193.652 383.905 201.806 378.277C202.548 377.764 203.318 377.195 203.657 376.36C203.995 375.525 203.683 374.363 202.816 374.117C197.313 372.554 191.889 370.71 186.574 368.595L186.205 368.445C184.598 367.772 182.915 366.817 182.578 365.143C177.895 365.331 173.8 368.285 170.346 371.452C166.892 374.62 163.647 378.197 159.391 380.159C155.135 382.121 149.422 381.952 146.474 378.309L146.283 378.071C146.026 377.754 145.746 377.447 145.358 377.346C144.874 377.219 144.252 377.701 144.478 378.148C145.062 379.306 143.807 380.769 142.513 380.688C141.219 380.608 140.207 379.429 139.888 378.172C139.684 377.364 139.702 376.529 139.8 375.696L139.824 375.491C139.249 377.529 137.445 379.22 135.335 379.534C132.829 379.908 130.171 378.3 129.338 375.907C128.652 373.935 125.963 373.9 123.908 373.531C119.235 372.692 115.687 367.796 116.344 363.094ZM148.081 284.614C145.312 289.538 147.884 295.769 151.293 300.273C161.985 314.396 179.894 321.174 192.114 333.998C195.184 337.221 197.86 340.791 200.502 344.375L208.806 355.653C210.332 357.726 211.864 359.805 213.645 361.664C218.289 366.51 224.404 369.636 230.452 372.547C242.723 378.452 255.347 383.878 268.671 386.696C281.994 389.515 296.151 389.611 308.97 385.014C320.968 380.712 331.307 372.461 339.339 362.564C347.18 352.903 352.936 341.704 357.549 330.143L357.885 329.297C358.548 327.611 359.2 325.847 359.063 324.04C358.917 322.129 357.899 320.392 356.711 318.889C352.18 313.157 344.609 309.915 337.358 310.811C330.22 311.693 323.685 316.645 321.07 323.338L320.949 323.658C315.267 339.061 301.118 350.646 285.223 354.756C269.329 358.867 252.041 355.921 237.533 348.237C223.025 340.552 211.186 328.388 202.36 314.545L201.878 313.781C200.283 311.221 198.833 308.529 198.272 305.576C197.655 302.328 198.282 298.675 200.628 296.345C202.177 294.806 204.382 293.903 205.509 292.032C206.636 290.161 205.313 286.857 203.234 287.526L201.847 287.965C192.291 290.938 181.205 293.244 173.517 287.057L172.778 286.466C169.191 283.616 165.358 280.895 160.902 279.915C156.138 278.867 150.471 280.362 148.081 284.614ZM186.172 334.529C174.582 341.853 161.501 346.807 147.967 349C146.18 349.289 145.7 351.605 145.672 353.415C145.583 359.167 145.861 364.925 146.505 370.642C147.971 369.952 148.571 368.228 149.57 366.952C150.57 365.677 152.851 364.979 153.623 366.403C154.163 367.398 153.443 368.644 152.523 369.303C151.603 369.963 150.472 370.32 149.652 371.1C147.612 373.041 148.678 376.858 151.164 378.18C153.65 379.503 156.795 378.812 159.178 377.313C161.562 375.813 163.403 373.614 165.424 371.654C169.746 367.46 175.033 364.266 180.756 362.391C188.022 360.011 196.112 359.658 202.504 355.463C202.935 355.18 203.38 354.849 203.543 354.36C203.765 353.693 203.389 353 202.991 352.406L195.343 341.301C194.125 339.532 192.723 337.632 190.636 337.126C189.681 336.894 188.664 336.984 187.727 336.689C186.791 336.393 185.908 335.475 186.172 334.529ZM132.777 350.661C129.796 352.053 128.031 355.326 127.638 358.594C127.246 361.861 128.017 365.151 128.933 368.311C129.495 370.251 130.118 372.186 131.048 373.979C131.641 375.123 132.427 376.263 133.615 376.76C134.803 377.257 136.452 376.81 136.838 375.582C136.997 375.075 136.926 374.528 136.834 374.006C136.488 372.042 135.867 370.127 134.996 368.333L134.63 367.606C134.106 366.557 133.612 365.32 134.286 364.405C134.93 363.531 136.511 363.169 136.36 362.095L134.883 351.597C134.84 351.291 134.789 350.966 134.59 350.729C134.171 350.23 133.368 350.385 132.777 350.661ZM369.183 366.852C368.199 366.848 367.163 366.983 366.372 367.57C365.91 367.914 365.56 368.394 365.314 368.915C364.275 371.118 365.234 373.95 367.202 375.385C369.171 376.819 371.899 376.953 374.179 376.094C375.922 375.437 377.598 373.948 377.54 372.086C377.494 370.617 376.379 369.391 375.149 368.586C373.392 367.436 371.283 366.861 369.183 366.852ZM138.372 320.914C138.12 321.101 137.996 321.41 137.889 321.706C136.339 326.008 136.149 330.671 136.191 335.244C136.299 346.709 137.772 358.161 140.569 369.281L140.708 369.822C141.28 371.993 142.062 374.22 143.833 375.563C144.163 357.942 143.019 340.294 140.419 322.863C140.25 321.732 139.29 320.231 138.372 320.914ZM124.409 358.788C124.039 358.892 123.801 359.245 123.616 359.582C122.104 362.341 122.002 365.827 123.35 368.67C123.954 369.945 124.991 371.184 126.393 371.34C126.964 370.628 126.703 369.603 126.383 368.731L126.106 367.993C125.077 365.204 124.233 362.185 125.14 359.382C125.258 359.016 124.779 358.685 124.409 358.788ZM119.365 362.61C118.304 364.968 118.777 367.934 120.517 369.846C121.235 369.111 120.919 367.908 120.674 366.911C120.29 365.349 120.203 363.716 120.42 362.123C120.152 361.73 119.559 362.177 119.365 362.61ZM141.715 278.589C143.322 279.973 144.344 282.961 142.435 283.886C141.212 284.479 139.826 283.612 138.671 282.896C132.67 279.173 124.998 278.898 118.194 280.792C111.391 282.686 105.309 286.545 99.6 290.703C93.9153 294.843 88.434 299.386 84.1594 304.971C79.8849 310.556 76.8614 317.285 76.6133 324.314C76.316 332.735 79.9544 340.787 84.1618 348.088C86.8433 352.742 89.8672 357.33 94.0298 360.709L94.8856 361.386C96.0664 362.334 97.2789 363.509 96.9777 364.935C92.8976 364.751 89.9362 361.101 87.6892 357.69C84.4941 352.84 81.5816 347.804 78.9714 342.616C76.801 338.302 74.8172 333.807 74.1578 329.023C72.9177 320.026 76.5706 310.877 82.2483 303.788C87.9259 296.699 95.482 291.38 103.124 286.472C108.93 282.745 114.904 279.17 121.42 276.905C128.141 274.57 136.324 273.946 141.715 278.589ZM314.18 238.961C304.516 247.981 291.671 253.522 278.478 254.362C272.647 254.733 266.627 254.176 261.351 251.665C256.075 249.155 251.631 244.475 250.405 238.762L249.967 238.898C246.148 240.106 241.776 242.292 241.814 246.228C241.978 262.918 241.589 279.613 240.65 296.278C240.47 299.476 239.252 303.674 236.051 303.58C224.676 303.246 213.228 305.872 203.136 311.13C214.495 328.943 230.648 344.517 250.742 351.042C270.835 357.566 295.069 353.489 309.149 337.739C313.663 332.691 316.985 326.722 320.183 320.743L320.92 319.363C321.6 318.088 322.293 316.572 321.688 315.26C321.302 314.421 322.134 313.551 322.898 313.033C334.134 305.429 350.864 307.492 359.915 317.599C359.198 316.196 359.85 314.262 361.27 313.58C362.399 315.394 362.638 317.735 361.899 319.739C362.388 320.432 363.286 319.318 363.363 318.474C364.57 305.336 364.475 292.079 363.081 278.96C362.578 274.229 361.895 269.469 360.202 265.023C358.718 261.125 356.487 257.551 354.043 254.17C348.42 246.392 341.583 239.493 333.857 233.798L333.296 233.39C332.071 232.513 330.782 231.705 329.334 231.311C323.604 229.751 318.521 234.909 314.18 238.961ZM236.114 231.404C229.725 233.553 222.808 233.14 216.083 233.605C206.607 234.259 197.26 236.724 188.692 240.825C185.002 242.592 181.433 244.668 177.531 245.897C169.243 248.507 159.743 246.895 152.78 241.698C151.279 253.158 151.721 264.87 154.083 276.184C154.235 276.911 154.714 277.841 155.423 277.623C160.133 276.176 165.198 278.223 169.385 280.818C173.573 283.414 177.508 286.65 182.264 287.935C187.843 289.442 193.756 288.049 199.279 286.298L199.692 286.166C202.523 285.257 206.184 284.5 207.999 286.854C209.531 288.84 208.564 291.807 206.943 293.72C205.322 295.633 203.123 297.056 201.801 299.186C200.177 301.803 200.169 305.336 201.78 307.96C212.327 303.73 223.616 301.357 234.974 300.982C237.251 300.907 238.05 297.96 238.19 295.685C239.416 275.754 239.793 255.771 239.318 235.807C239.268 233.679 238.131 230.725 236.114 231.404ZM406.873 285.3L407.325 285.526C410.122 286.948 413.098 288.842 413.515 291.904C413.652 292.913 413.48 293.938 413.24 294.927C412.908 296.297 412.402 297.702 411.338 298.625C410.209 299.604 408.623 299.882 407.13 299.824C404.19 299.71 401.248 298.34 399.545 295.941C397.842 293.542 397.568 290.11 399.157 287.634C400.745 285.157 404.237 283.993 406.873 285.3ZM402.513 288.726C400.77 289.453 400.143 291.81 400.87 293.552C401.597 295.295 403.325 296.442 405.119 297.029C406.954 297.63 409.319 297.581 410.412 295.989C410.776 295.46 410.949 294.821 411.049 294.186C411.268 292.804 411.135 291.273 410.245 290.193C409.142 288.856 407.259 288.587 405.5 288.488L405.064 288.466C404.203 288.427 403.309 288.394 402.513 288.726ZM182.521 252.701C182.742 253.538 182.572 254.421 182.422 255.273C181.361 261.272 181.284 267.445 182.193 273.47L182.361 274.536C182.472 275.29 182.517 276.086 182.084 276.693C181.584 277.394 180.183 277.323 180.113 276.466C179.516 269.166 179.134 261.849 178.967 254.527C178.935 253.128 179.3 251.268 180.695 251.161C181.557 251.094 182.301 251.865 182.521 252.701ZM133.434 238.073C134.465 238.383 135.456 239.09 135.755 240.125C136.054 241.16 135.374 242.468 134.299 242.535C133.297 242.599 132.532 241.686 131.611 241.286C129.959 240.567 128.104 241.571 126.585 242.54L125.811 243.04C124.352 244 122.939 245.078 122.138 246.61C121.319 248.177 121.25 250.019 121.275 251.787C121.293 253.017 121.351 254.264 121.731 255.433C122.555 257.969 124.908 259.87 127.518 260.419C130.128 260.969 132.919 260.257 135.126 258.76L135.559 258.466C135.948 258.21 136.357 257.986 136.816 257.964C137.446 257.933 138.136 258.528 137.922 259.122C137.858 259.3 137.726 259.444 137.594 259.579C133.985 263.286 127.754 264.08 123.332 261.396C122.543 260.917 121.807 260.339 121.211 259.634C119.419 257.517 119.085 254.55 119.035 251.776C119.009 250.275 119.046 248.752 119.472 247.313C120.394 244.203 122.999 241.893 125.706 240.107C128.005 238.59 130.797 237.28 133.434 238.073ZM112.556 231.693L121.552 242.376C121.058 242.912 120.19 242.947 119.522 242.656C118.927 242.398 118.453 241.936 118.006 241.461L112.728 235.784C112.008 241.546 110.265 247.178 107.604 252.339C107.345 252.842 108.079 253.266 108.641 253.324C110.014 253.465 111.402 253.308 112.756 253.04L113.454 252.899C114.547 252.681 115.668 252.511 116.687 252.915C117.925 253.405 118.689 255.206 117.696 256.094C117.084 256.64 116.158 256.572 115.343 256.472L106.582 255.388L106.313 255.349C105.448 255.208 104.497 254.869 104.37 254.035C104.294 253.533 104.573 253.053 104.834 252.617C107.953 247.412 110.03 241.587 110.912 235.584L111.045 234.632C111.217 233.464 111.52 232.196 112.556 231.693ZM419.061 248.478C420.146 249.246 421.171 250.754 420.33 251.785C419.804 252.429 418.789 252.445 418.032 252.098C417.276 251.752 416.688 251.13 416.035 250.614C413.358 248.497 409.337 248.275 406.443 250.082C406.031 250.339 405.621 250.659 405.454 251.115C405.286 251.571 405.471 252.183 405.937 252.321C409.632 250.756 414.037 250.975 417.558 252.899C418.067 253.177 418.602 253.547 418.727 254.113C418.852 254.679 418.244 255.359 417.738 255.075C415.44 253.789 412.697 253.316 410.101 253.757C408.891 253.963 407.707 254.361 406.48 254.4C405.253 254.439 403.911 254.03 403.26 252.989C402.659 252.029 402.801 250.733 403.387 249.763C403.974 248.794 404.934 248.107 405.939 247.584C410.03 245.455 415.297 245.814 419.061 248.478ZM296.493 196.539C287.721 203.912 277.412 209.45 266.422 212.697L265.689 212.91C264.262 213.317 262.467 214.221 262.767 215.674L262.951 216.576C263.5 219.287 263.964 222.048 263.573 224.776C263.152 227.718 261.53 230.662 258.846 231.899L258.599 232.006C253.82 233.974 253.148 241.113 256.282 245.222C259.416 249.332 264.851 250.924 269.985 251.517C285.053 253.26 300.778 248.208 312.011 238.015C316.085 234.318 319.731 229.892 324.775 227.696L312.161 223.079C308.758 221.833 305.31 220.564 302.348 218.477C299.386 216.389 296.916 213.35 296.31 209.777C295.569 205.401 297.667 200.819 296.493 196.539ZM150.98 208.371C150.664 208.512 150.341 208.699 150.188 209.01C150.036 209.321 150.087 209.689 150.141 210.032L153.031 228.251C153.883 233.619 155.08 239.569 159.508 242.722C164.358 246.176 171.019 244.823 176.667 242.851L176.969 242.745C187.483 239.011 197.601 233.812 208.621 232.063C216.532 230.808 224.829 231.345 232.31 228.481C229.574 224.351 223.645 224.373 218.686 224.915L178.171 229.519C175.032 229.876 171.736 230.292 169.187 232.158C168.071 232.974 167.015 234.096 165.634 234.153C164.291 234.209 163.123 232.252 164.176 231.532L164.269 231.475C165.423 230.839 165.346 229.181 165.109 227.885L163.884 221.166C163.264 217.833 162.508 214.442 160.514 211.721C158.36 208.782 154.31 206.892 150.98 208.371ZM430.682 235.601C431.658 236.739 431.7 238.484 431.049 239.835C430.398 241.186 429.165 242.179 427.831 242.863C426.222 243.689 424.449 244.12 422.673 244.487L421.785 244.668C421.437 244.737 421.07 244.806 420.734 244.694C420.454 244.601 420.227 244.391 420.043 244.161C419.127 243.012 419.16 241.317 419.779 239.984C420.399 238.652 421.509 237.616 422.649 236.689C423.814 235.742 425.081 234.849 426.543 234.502C428.004 234.156 429.704 234.462 430.682 235.601ZM425.891 237.6L425.423 237.915C424.725 238.394 424.05 238.917 423.581 239.615C423.006 240.469 422.807 241.66 423.374 242.519L427.131 240.428C427.744 240.087 428.378 239.727 428.775 239.15C429.172 238.573 429.251 237.713 428.76 237.213C428.023 236.463 426.767 237.018 425.891 237.6ZM365.946 196.472C366.208 196.579 366.385 196.816 366.538 197.059L372.044 206.051C373.028 207.658 375.266 207.837 377.146 207.705C380.748 207.451 384.316 206.716 387.725 205.525C388.297 205.325 388.839 206.053 388.716 206.646C388.593 207.239 388.083 207.661 387.605 208.034L379.336 214.479C378.321 214.407 378.609 212.745 379.433 212.147L379.676 211.977C380.47 211.441 381.433 210.912 381.383 209.993L376.604 211.486C375.691 211.771 374.677 212.051 373.809 211.65C373.232 211.384 372.828 210.861 372.463 210.335L366.392 201.474L366.287 209.234C366.279 209.87 366.251 210.56 365.847 211.052C365.561 211.401 365.132 211.589 364.704 211.747L356.327 214.752C358.564 216.989 362.751 214.636 365.428 216.321C367.262 217.476 367.575 220.05 367.18 222.181C366.784 224.312 365.877 226.385 365.995 228.549C367.523 227.44 368.646 225.784 369.11 223.953C369.297 223.215 369.389 222.43 369.8 221.789C370.931 220.022 373.635 220.382 375.508 221.327C377.382 222.272 379.325 223.632 381.375 223.183L378.401 218.428C378.13 217.995 377.849 217.525 377.873 217.014C377.897 216.503 378.382 215.986 378.872 216.134C379.086 216.2 379.246 216.369 379.388 216.547L386.022 225.146C383.692 226.683 380.618 225.715 377.928 224.973L377.529 224.869C374.904 224.219 371.701 224.155 370.252 226.379C369.231 227.947 368.032 229.399 366.686 230.698C366.119 231.246 365.473 231.792 364.689 231.881C363.906 231.971 363.006 231.377 363.076 230.592L363.847 221.896C363.897 221.333 363.935 220.72 363.621 220.25C363.291 219.755 362.668 219.562 362.094 219.404L354.847 217.403C353.271 216.967 353.26 214.515 354.442 213.385C355.623 212.256 357.364 212.019 358.939 211.583C360.515 211.146 362.218 210.218 362.502 208.609L364.342 198.19C364.499 197.3 365.107 196.133 365.946 196.472ZM170.954 49.5893L169.616 50.677C160.698 57.9445 151.91 65.5634 145.37 75.0106C138.502 84.9301 134.286 97.2306 136.33 109.121C139.31 126.448 154.809 140.247 155.471 157.816C155.559 160.15 157.936 161.603 159.924 162.828C167.771 167.664 173.585 175.338 177.422 183.719C181.139 191.837 183.123 200.634 184.566 209.451L184.704 210.304C184.919 211.648 185.076 213.179 184.209 214.228C183.342 215.278 181.112 214.91 181.198 213.551C182.216 197.577 176.41 181.281 165.522 169.548C162.694 166.5 159.408 163.675 155.425 162.481C155.171 168.634 153.1 174.904 148.714 179.227C144.329 183.551 137.41 185.526 131.733 183.14C126.056 180.754 122.583 173.551 125.138 167.948C127.278 163.254 132.594 160.883 137.655 159.884C142.621 158.903 147.769 158.852 152.753 159.734C153.424 159.852 153.716 158.915 153.702 158.234C153.342 139.972 136.461 125.675 134.245 107.544C133.034 97.6357 136.415 87.6615 141.321 78.9683C147.764 67.5521 156.93 57.6846 167.841 50.4184L168.126 50.2331C169 49.683 170.019 49.2138 170.954 49.5893ZM226.535 142.601C224.093 144.172 224.155 147.659 223.953 150.556C223.676 154.531 222.31 158.509 219.645 161.47C216.98 164.431 212.931 166.251 208.978 165.753C207.955 165.625 207.645 167.104 207.779 168.126C210.077 185.641 220.701 202.837 237.216 209.109C247.312 212.943 258.716 212.434 269.009 209.166C279.058 205.975 288.152 200.302 296.464 193.807L297.07 193.33C298.276 192.378 299.487 191.386 300.325 190.099C301.175 188.793 301.593 187.249 301.796 185.705C302.887 177.432 297.358 168.775 289.393 166.285C288.456 165.992 288.673 164.471 289.495 163.934C290.318 163.398 291.377 163.434 292.316 163.147C294.861 162.37 296.031 159.472 296.612 156.875C297.41 153.308 297.634 149.24 295.423 146.328C292.435 142.394 286.626 142.399 281.7 142.776L273.707 143.388C270.948 143.599 267.397 144.571 267.268 147.335C266.989 153.287 264.367 159.217 259.734 162.965C255.102 166.713 248.431 168.009 242.931 165.714C237.519 163.456 233.695 157.565 234.321 151.748L234.354 151.466C234.68 149.006 234.501 146.334 233.059 144.313C231.618 142.292 228.623 141.258 226.535 142.601ZM292.553 49.5856C288.988 50.5988 285.565 52.233 282.751 54.644C278.819 58.0134 276.205 62.8824 275.569 68.0215C275.343 69.8424 275.705 72.1909 277.474 72.68C281.794 73.8751 285.659 76.6462 288.178 80.3539C284.094 77.9236 279.617 76.1553 274.974 75.1387L294.597 86.2423C295.735 86.8859 296.916 87.5695 297.631 88.6633C298.346 89.7571 298.421 91.3895 297.438 92.2511L296.067 91.1835C292.629 88.5227 289.114 85.9434 285.266 83.9297C282.34 82.3986 279.252 81.2106 276.147 80.079L274.453 79.4655C268.705 77.3919 262.905 75.3051 256.851 74.4765C251.232 73.7075 245.463 74.0489 239.974 75.4754L238.891 75.7528C231.476 77.6293 223.745 79.1636 217.614 83.6973C213.967 86.3942 211.111 90.0046 208.4 93.6404L207.76 94.5082C202.373 101.905 197.45 111.025 200.602 119.511C215.074 117.729 226.348 106.532 239.458 100.149C240.46 99.6609 242.112 99.5116 242.265 100.616L227.595 109.285C228.002 111.523 227.617 113.898 226.524 115.893C237.242 112.864 247.262 107.396 255.611 100.024L256.141 99.5511C257.466 98.3589 260.017 97.3725 260.582 99.0626L259.864 99.4636C257.231 100.944 254.612 102.564 252.798 104.962C250.818 107.578 250.03 111.381 251.785 114.153L270.304 103.249C271.056 102.806 271.876 102.347 272.745 102.438C273.613 102.529 274.427 103.465 274.052 104.253L273.422 104.384C271.423 104.809 269.396 105.341 267.84 106.643C266.119 108.082 265.228 110.78 266.507 112.623C268.8 115.929 270.66 119.534 272.027 123.318C272.056 121.663 274.312 120.817 275.799 121.544C277.286 122.27 278.072 123.91 278.611 125.475C280.152 129.951 280.56 134.813 279.784 139.483C284.441 141.128 289.903 139.185 294.383 141.265C298.541 143.196 300.575 148.204 300.286 152.779C299.997 157.354 297.835 161.584 295.526 165.544C301.978 170.543 305.425 179.153 304.204 187.223C305.329 187.04 306.28 186.069 306.439 184.94L308.998 186.555C304.996 188.817 302.148 193.016 301.527 197.571C319.111 181.116 324.949 155.036 322.412 131.087L322.313 130.194C321.308 121.546 318.915 112.531 312.411 106.803C315.898 104.792 320.37 105.583 324.101 104.073C327.627 102.647 330.049 99.3408 331.686 95.908C337.157 84.4317 335.273 69.8299 327.068 60.118C318.863 50.4061 304.782 46.109 292.553 49.5856ZM235.068 193.513C235.622 193.605 236.251 193.792 236.469 194.311C236.816 195.139 235.844 195.896 235.002 196.209C233.781 196.664 232.499 196.955 231.201 197.073C230.111 197.171 228.737 196.961 228.401 195.921C228.179 195.236 228.564 194.468 229.146 194.046C229.728 193.624 230.465 193.482 231.18 193.404C232.472 193.264 233.784 193.301 235.068 193.513ZM215.176 181.645C219.003 186.143 224.989 188.524 230.894 188.571C236.799 188.617 242.593 186.482 247.495 183.19L247.907 182.913C248.53 182.499 249.176 182.111 249.906 181.984C250.799 181.828 251.86 182.203 252.164 183.057C247.036 187.412 240.608 190.288 233.908 190.896C227.208 191.504 220.269 189.785 214.802 185.864C213.816 185.157 212.796 184.226 212.755 183.013C212.715 181.8 214.389 180.721 215.176 181.645ZM134.963 162.596C132.302 163.444 129.624 164.688 127.945 166.921C125.451 170.237 125.887 175.268 128.581 178.424C131.274 181.581 135.829 182.841 139.892 182.002C143.956 181.163 147.484 178.421 149.767 174.957C152.051 171.493 153.169 167.357 153.507 163.222C153.564 162.528 153.438 161.611 152.754 161.483C146.853 160.385 140.682 160.771 134.963 162.596ZM229.257 146.437C229.368 147.391 228.999 148.327 228.66 149.225C226.743 154.301 225.577 159.659 225.21 165.073C225.15 165.95 225.116 166.859 225.438 167.677C225.742 168.449 226.446 169.121 227.264 169.167L227.409 169.169C228.153 169.143 228.506 170.252 228.038 170.831C227.57 171.409 226.692 171.474 225.978 171.262C224.514 170.826 223.463 169.462 223.038 167.994C222.613 166.526 222.722 164.958 222.935 163.445C223.656 158.313 225.53 153.337 225.622 148.156C225.648 146.694 225.947 144.723 227.404 144.607C228.361 144.53 229.146 145.483 229.257 146.437ZM247.467 129.118C244.423 129.744 242.1 132.241 240.522 134.917C237.288 140.4 236.367 147.198 238.025 153.344C238.769 156.103 240.041 158.77 242.037 160.816C244.034 162.861 246.807 164.234 249.664 164.187C251.659 164.154 253.595 163.446 255.328 162.457C261.114 159.156 264.79 152.466 264.474 145.811C264.157 139.157 259.864 132.846 253.79 130.108C251.813 129.216 249.591 128.681 247.467 129.118ZM205.465 126.39C200.027 128.404 196.517 134.051 195.769 139.801C195.021 145.552 196.634 151.368 198.933 156.692C199.552 158.126 200.256 159.583 201.444 160.596C202.633 161.609 204.433 162.063 205.784 161.279C206.413 160.914 207 161.767 207.477 162.316C208.428 163.408 210.1 163.502 211.521 163.218C216.2 162.283 219.796 158.194 221.251 153.649C222.658 149.257 222.358 144.502 221.527 139.956L221.439 139.487C220.562 134.902 218.581 129.75 214.118 128.385C211.777 127.669 208.954 128.088 207.145 126.439C206.709 126.042 206.019 126.184 205.465 126.39ZM291.876 145.827C293.716 147.865 292.963 151.03 292.043 153.645L291.968 153.856C291.6 154.881 291.218 155.931 290.515 156.762C289.811 157.594 288.705 158.175 287.639 157.953C286.572 157.731 285.741 156.494 286.189 155.501C286.745 154.268 288.635 154.205 289.317 153.037L287.474 152.864C286.233 152.746 284.896 152.589 283.977 151.747C283.057 150.905 282.942 149.123 284.06 148.571C284.835 148.189 285.768 148.563 286.486 149.045C287.203 149.527 287.889 150.138 288.743 150.269C289.598 150.4 290.636 149.729 290.46 148.883C290.215 147.705 290.819 146.402 291.876 145.827ZM249.807 153.783C249.952 154.593 250.006 155.453 249.703 156.218C249.399 156.983 248.66 157.624 247.838 157.589C246.564 157.536 245.882 156.069 245.659 154.814C245.384 153.263 245.814 151.128 247.385 151.013C248.729 150.914 249.568 152.456 249.807 153.783ZM210.559 150.49C211.194 151.415 211.104 152.651 210.852 153.743C210.529 155.142 209.718 156.702 208.291 156.848C207.002 156.979 205.901 155.826 205.48 154.601C204.965 153.106 205.215 151.279 206.382 150.212C207.55 149.146 209.664 149.187 210.559 150.49ZM211.747 134.71C212.317 134.972 212.718 135.69 212.43 136.247L211.879 136.391C208.742 137.228 205.398 138.393 203.9 141.23C203.541 141.909 203.308 142.659 202.861 143.285C202.413 143.91 201.66 144.407 200.907 144.249C200.05 144.068 199.554 143.082 199.645 142.21C199.737 141.339 200.267 140.579 200.835 139.912C203.144 137.199 206.398 135.306 209.899 134.64C210.515 134.523 211.177 134.448 211.747 134.71ZM251.84 136.277C252.778 137.032 253.491 138.04 254.439 138.783C255.239 139.411 256.251 139.908 256.615 140.858C256.979 141.809 255.884 143.151 255.09 142.515C253.016 140.853 250.715 139.477 248.269 138.436C247.161 137.964 247.412 136.099 248.494 135.568C249.575 135.037 250.902 135.521 251.84 136.277ZM240.221 130.316C238.177 130.989 236.725 133.14 236.864 135.288C237.645 134.888 238.241 134.14 238.456 133.289L238.425 133.203C239.333 132.486 239.979 131.446 240.221 130.316Z" fill="#120032"/>
<path fill-rule="evenodd" clip-rule="evenodd" d="M125.049 387.712C125.871 387.719 126.628 388.1 127.346 388.519L127.734 388.75C132.138 391.386 136.785 393.616 141.596 395.402C142.258 395.648 142.052 396.758 141.408 397.045C140.763 397.331 140.019 397.076 139.362 396.82L125.152 391.291C124.243 390.937 123.187 390.398 123.108 389.425C123.028 388.457 124.077 387.703 125.049 387.712Z" fill="#E7EAEE"/>
<path fill-rule="evenodd" clip-rule="evenodd" d="M102.396 372.23L146.355 387.824L146.631 387.927C147.793 388.381 149.049 389.158 148.925 390.358C148.824 391.335 147.742 391.966 146.76 391.933C145.929 391.905 145.161 391.536 144.427 391.129L144.029 390.905C137.9 387.429 131.469 384.561 124.874 382.083C117.403 379.276 109.721 376.97 102.026 374.847C100.849 374.522 99.3582 373.471 100.033 372.454C100.506 371.74 101.589 371.944 102.396 372.23Z" fill="#E7EAEE"/>
</g>
<defs>
<clipPath id="clip0_529_373">
<rect width="630" height="483" rx="40" fill="white"/>
</clipPath>
</defs>
</svg>
