<svg width="41" height="41" viewBox="0 0 41 41" fill="none" xmlns="http://www.w3.org/2000/svg">
<path d="M29.0963 3.38544H12.1692C7.49491 3.38544 3.70566 7.17469 3.70566 11.849V28.7761C3.70566 33.4503 7.49491 37.2396 12.1692 37.2396H29.0963C33.7706 37.2396 37.5598 33.4503 37.5598 28.7761V11.849C37.5598 7.17469 33.7706 3.38544 29.0963 3.38544Z" stroke="#D9D9D9" stroke-width="3.38542" stroke-linecap="round" stroke-linejoin="round"/>
<path d="M27.4031 19.2462C27.612 20.6549 27.3713 22.0937 26.7154 23.3578C26.0595 24.6219 25.0217 25.647 23.7496 26.2873C22.4775 26.9276 21.0359 27.1504 19.6298 26.9242C18.2237 26.6979 16.9248 26.0341 15.9178 25.027C14.9107 24.02 14.2469 22.7211 14.0206 21.315C13.7944 19.909 14.0172 18.4674 14.6575 17.1952C15.2978 15.9231 16.3229 14.8853 17.587 14.2294C18.8511 13.5735 20.2899 13.3328 21.6986 13.5417C23.1356 13.7548 24.466 14.4244 25.4932 15.4516C26.5204 16.4789 27.19 17.8092 27.4031 19.2462Z" stroke="#D9D9D9" stroke-width="3.38542" stroke-linecap="round" stroke-linejoin="round"/>
<path d="M29.9426 11.0026H29.9595" stroke="#D9D9D9" stroke-width="3.38542" stroke-linecap="round" stroke-linejoin="round"/>
</svg>
