<svg width="1440" height="1024" viewBox="0 0 1440 1024" fill="none" xmlns="http://www.w3.org/2000/svg">
<g clip-path="url(#clip0_34_26)">
<path d="M1631.44 0H-189V1024H1631.44V0Z" fill="#120032"/>
<path d="M-189 709.215L70.7926 676.978L330.585 614.4L590.378 682.667L852.067 750.933H1111.86L1371.65 730.074L1631.44 608.711V1025.9H1371.65H1111.86H852.067H590.378H330.585H70.7926H-189V709.215Z" fill="#055941"/>
<path d="M-189 684.563L70.7926 692.148L330.585 815.407L590.378 802.133L852.067 716.8L1111.86 769.896L1371.65 811.615L1631.44 722.489V1025.9H1371.65H1111.86H852.067H590.378H330.585H70.7926H-189V684.563Z" fill="#004955"/>
<path d="M-189 747.141L70.7926 754.726L330.585 859.022L590.378 769.896H852.067L1111.86 747.141L1371.65 768L1631.44 794.548V1025.9H1371.65H1111.86H852.067H590.378H330.585H70.7926H-189V747.141Z" fill="#003552"/>
<path d="M-189 893.156L70.7926 881.778L330.585 923.496L590.378 872.296L852.067 822.993L1111.86 832.474L1371.65 912.119L1631.44 834.37V1025.9H1371.65H1111.86H852.067H590.378H330.585H70.7926H-189V893.156Z" fill="#001F45"/>
<path d="M-189 904.533L70.7926 902.637L330.585 959.526L590.378 896.948L852.067 950.044L1111.86 936.77L1371.65 961.422L1631.44 904.533V1025.9H1371.65H1111.86H852.067H590.378H330.585H70.7926H-189V904.533Z" fill="#120032"/>
</g>
<defs>
<clipPath id="clip0_34_26">
<rect width="1440" height="1024" fill="white"/>
</clipPath>
</defs>
</svg>
