<svg id="visual" viewBox="0 0 960 540" width="960" height="540" xmlns="http://www.w3.org/2000/svg" xmlns:xlink="http://www.w3.org/1999/xlink" version="1.1"><rect x="0" y="0" width="960" height="540" fill="#120032"></rect><path d="M0 374L137 357L274 324L411 360L549 396L686 396L823 385L960 321L960 541L823 541L686 541L549 541L411 541L274 541L137 541L0 541Z" fill="#055941"></path><path d="M0 361L137 365L274 430L411 423L549 378L686 406L823 428L960 381L960 541L823 541L686 541L549 541L411 541L274 541L137 541L0 541Z" fill="#004955"></path><path d="M0 394L137 398L274 453L411 406L549 406L686 394L823 405L960 419L960 541L823 541L686 541L549 541L411 541L274 541L137 541L0 541Z" fill="#003552"></path><path d="M0 471L137 465L274 487L411 460L549 434L686 439L823 481L960 440L960 541L823 541L686 541L549 541L411 541L274 541L137 541L0 541Z" fill="#001f45"></path><path d="M0 477L137 476L274 506L411 473L549 501L686 494L823 507L960 477L960 541L823 541L686 541L549 541L411 541L274 541L137 541L0 541Z" fill="#120032"></path></svg>