<svg width="41" height="41" viewBox="0 0 41 41" fill="none" xmlns="http://www.w3.org/2000/svg">
<g clip-path="url(#clip0_69_576)">
<path d="M39.0442 5.07818C37.4232 6.22156 35.6285 7.09607 33.7291 7.66802C32.7096 6.49584 31.3548 5.66503 29.8478 5.28795C28.3407 4.91087 26.7543 5.00572 25.3029 5.55968C23.8516 6.11363 22.6053 7.09995 21.7328 8.38525C20.8603 9.67055 20.4036 11.1928 20.4244 12.7461V14.4389C17.4497 14.516 14.5021 13.8562 11.8441 12.5184C9.18606 11.1805 6.90018 9.20608 5.19001 6.77089C5.19001 6.77089 -1.58082 22.0053 13.6536 28.7761C10.1675 31.1424 6.01463 32.329 1.8046 32.1615C17.039 40.6251 35.6588 32.1615 35.6588 12.6954C35.6572 12.2239 35.6119 11.7535 35.5233 11.2904C37.2509 9.5867 38.4701 7.43564 39.0442 5.07818Z" stroke="#D9D9D9" stroke-width="3.38542" stroke-linecap="round" stroke-linejoin="round"/>
</g>
<defs>
<clipPath id="clip0_69_576">
<rect width="40.625" height="40.625" fill="white" transform="translate(0.112549)"/>
</clipPath>
</defs>
</svg>
