<svg width="360" height="80" viewBox="0 0 360 80" fill="none" xmlns="http://www.w3.org/2000/svg">
<rect width="360" height="80" rx="5" fill="#055941"/>
<path d="M20 19H35.5C38.2406 19 40.8689 20.0011 42.8068 21.783C44.7446 23.565 45.8333 25.9819 45.8333 28.5019V61.7586C45.8333 59.8686 45.0168 58.0559 43.5634 56.7195C42.11 55.383 40.1388 54.6322 38.0833 54.6322H20V19Z" stroke="white" stroke-width="4" stroke-linecap="round" stroke-linejoin="round"/>
<path d="M71.6666 19H56.1666C53.426 19 50.7977 20.0011 48.8598 21.783C46.9219 23.565 45.8333 25.9819 45.8333 28.5019V61.7586C45.8333 59.8686 46.6498 58.0559 48.1032 56.7195C49.5566 55.383 51.5278 54.6322 53.5833 54.6322H71.6666V19Z" stroke="white" stroke-width="4" stroke-linecap="round" stroke-linejoin="round"/>
<path d="M141.768 34C141.512 34 141.312 33.936 141.168 33.808C141.024 33.68 140.92 33.52 140.856 33.328L135.72 17.92C135.688 17.84 135.672 17.768 135.672 17.704C135.672 17.56 135.72 17.44 135.816 17.344C135.912 17.248 136.032 17.2 136.176 17.2H138.288C138.512 17.2 138.68 17.264 138.792 17.392C138.92 17.504 139 17.616 139.032 17.728L143.088 30.088L147.12 17.728C147.168 17.616 147.248 17.504 147.36 17.392C147.488 17.264 147.664 17.2 147.888 17.2H150C150.128 17.2 150.24 17.248 150.336 17.344C150.448 17.44 150.504 17.56 150.504 17.704C150.504 17.768 150.488 17.84 150.456 17.92L145.32 33.328C145.256 33.52 145.152 33.68 145.008 33.808C144.864 33.936 144.664 34 144.408 34H141.768ZM153.004 34C152.844 34 152.708 33.944 152.596 33.832C152.484 33.72 152.428 33.584 152.428 33.424V22.096C152.428 21.936 152.484 21.8 152.596 21.688C152.708 21.576 152.844 21.52 153.004 21.52H154.996C155.172 21.52 155.308 21.576 155.404 21.688C155.516 21.8 155.572 21.936 155.572 22.096V33.424C155.572 33.584 155.516 33.72 155.404 33.832C155.308 33.944 155.172 34 154.996 34H153.004ZM152.908 19.456C152.732 19.456 152.588 19.408 152.476 19.312C152.38 19.2 152.332 19.056 152.332 18.88V17.152C152.332 16.992 152.38 16.856 152.476 16.744C152.588 16.632 152.732 16.576 152.908 16.576H155.092C155.268 16.576 155.412 16.632 155.524 16.744C155.636 16.856 155.692 16.992 155.692 17.152V18.88C155.692 19.056 155.636 19.2 155.524 19.312C155.412 19.408 155.268 19.456 155.092 19.456H152.908ZM164.202 34.24C162.426 34.24 161.018 33.728 159.978 32.704C158.938 31.68 158.378 30.224 158.298 28.336C158.282 28.176 158.274 27.976 158.274 27.736C158.274 27.48 158.282 27.28 158.298 27.136C158.362 25.936 158.634 24.896 159.114 24.016C159.61 23.136 160.29 22.464 161.154 22C162.018 21.52 163.034 21.28 164.202 21.28C165.498 21.28 166.586 21.552 167.466 22.096C168.346 22.624 169.01 23.368 169.458 24.328C169.906 25.272 170.13 26.368 170.13 27.616V28.12C170.13 28.28 170.074 28.416 169.962 28.528C169.85 28.64 169.706 28.696 169.53 28.696H161.562C161.562 28.696 161.562 28.72 161.562 28.768C161.562 28.816 161.562 28.856 161.562 28.888C161.578 29.448 161.682 29.968 161.874 30.448C162.082 30.912 162.378 31.288 162.762 31.576C163.162 31.864 163.634 32.008 164.178 32.008C164.626 32.008 165.002 31.944 165.306 31.816C165.61 31.672 165.858 31.512 166.05 31.336C166.242 31.16 166.378 31.016 166.458 30.904C166.602 30.712 166.714 30.6 166.794 30.568C166.89 30.52 167.026 30.496 167.202 30.496H169.266C169.426 30.496 169.554 30.544 169.65 30.64C169.762 30.736 169.81 30.856 169.794 31C169.778 31.256 169.642 31.568 169.386 31.936C169.146 32.304 168.794 32.664 168.33 33.016C167.866 33.368 167.282 33.664 166.578 33.904C165.89 34.128 165.098 34.24 164.202 34.24ZM161.562 26.68H166.866V26.608C166.866 25.984 166.762 25.44 166.554 24.976C166.346 24.512 166.042 24.144 165.642 23.872C165.242 23.6 164.762 23.464 164.202 23.464C163.642 23.464 163.162 23.6 162.762 23.872C162.362 24.144 162.058 24.512 161.85 24.976C161.658 25.44 161.562 25.984 161.562 26.608V26.68ZM175.734 34C175.51 34 175.342 33.944 175.23 33.832C175.118 33.72 175.022 33.576 174.942 33.4L171.51 22.264C171.494 22.184 171.486 22.112 171.486 22.048C171.486 21.904 171.534 21.784 171.63 21.688C171.742 21.576 171.862 21.52 171.99 21.52H173.766C173.958 21.52 174.11 21.576 174.222 21.688C174.334 21.784 174.398 21.88 174.414 21.976L176.766 29.92L179.262 22.048C179.294 21.936 179.366 21.824 179.478 21.712C179.59 21.584 179.758 21.52 179.982 21.52H181.182C181.406 21.52 181.574 21.584 181.686 21.712C181.798 21.824 181.87 21.936 181.902 22.048L184.398 29.92L186.75 21.976C186.766 21.88 186.822 21.784 186.918 21.688C187.03 21.576 187.182 21.52 187.374 21.52H189.15C189.294 21.52 189.414 21.576 189.51 21.688C189.622 21.784 189.678 21.904 189.678 22.048C189.678 22.112 189.662 22.184 189.63 22.264L186.198 33.4C186.15 33.576 186.062 33.72 185.934 33.832C185.822 33.944 185.654 34 185.43 34H183.87C183.646 34 183.47 33.944 183.342 33.832C183.214 33.72 183.126 33.576 183.078 33.4L180.582 25.816L178.086 33.4C178.022 33.576 177.926 33.72 177.798 33.832C177.686 33.944 177.51 34 177.27 34H175.734ZM203.079 34.24C201.591 34.24 200.343 34.024 199.335 33.592C198.343 33.144 197.583 32.568 197.055 31.864C196.543 31.144 196.271 30.392 196.239 29.608C196.239 29.464 196.287 29.344 196.383 29.248C196.479 29.152 196.599 29.104 196.743 29.104H198.879C199.087 29.104 199.239 29.152 199.335 29.248C199.447 29.328 199.543 29.432 199.623 29.56C199.719 29.864 199.903 30.168 200.175 30.472C200.447 30.76 200.815 31 201.279 31.192C201.759 31.384 202.359 31.48 203.079 31.48C204.231 31.48 205.087 31.288 205.647 30.904C206.223 30.52 206.511 30 206.511 29.344C206.511 28.88 206.359 28.512 206.055 28.24C205.751 27.952 205.279 27.696 204.639 27.472C204.015 27.232 203.183 26.984 202.143 26.728C200.943 26.44 199.935 26.096 199.119 25.696C198.319 25.28 197.711 24.76 197.295 24.136C196.895 23.512 196.695 22.72 196.695 21.76C196.695 20.832 196.943 20.008 197.439 19.288C197.951 18.568 198.671 18 199.599 17.584C200.543 17.168 201.663 16.96 202.959 16.96C203.999 16.96 204.919 17.104 205.719 17.392C206.519 17.664 207.183 18.032 207.711 18.496C208.239 18.944 208.639 19.432 208.911 19.96C209.199 20.472 209.351 20.976 209.367 21.472C209.367 21.6 209.319 21.72 209.223 21.832C209.143 21.928 209.023 21.976 208.863 21.976H206.631C206.503 21.976 206.375 21.944 206.247 21.88C206.119 21.816 206.015 21.696 205.935 21.52C205.839 21.024 205.527 20.6 204.999 20.248C204.471 19.896 203.791 19.72 202.959 19.72C202.095 19.72 201.399 19.88 200.871 20.2C200.343 20.52 200.079 21.016 200.079 21.688C200.079 22.136 200.207 22.512 200.463 22.816C200.735 23.104 201.159 23.36 201.735 23.584C202.327 23.808 203.103 24.048 204.063 24.304C205.423 24.608 206.535 24.96 207.399 25.36C208.263 25.76 208.895 26.272 209.295 26.896C209.695 27.504 209.895 28.28 209.895 29.224C209.895 30.28 209.607 31.184 209.031 31.936C208.471 32.672 207.679 33.24 206.655 33.64C205.631 34.04 204.439 34.24 203.079 34.24ZM217.997 34C217.037 34 216.229 33.832 215.573 33.496C214.917 33.16 214.429 32.664 214.109 32.008C213.789 31.336 213.629 30.504 213.629 29.512V24.064H211.733C211.573 24.064 211.437 24.008 211.325 23.896C211.213 23.784 211.157 23.648 211.157 23.488V22.096C211.157 21.936 211.213 21.8 211.325 21.688C211.437 21.576 211.573 21.52 211.733 21.52H213.629V17.536C213.629 17.376 213.677 17.24 213.773 17.128C213.885 17.016 214.029 16.96 214.205 16.96H216.149C216.309 16.96 216.445 17.016 216.557 17.128C216.669 17.24 216.725 17.376 216.725 17.536V21.52H219.725C219.885 21.52 220.021 21.576 220.133 21.688C220.245 21.8 220.301 21.936 220.301 22.096V23.488C220.301 23.648 220.245 23.784 220.133 23.896C220.021 24.008 219.885 24.064 219.725 24.064H216.725V29.272C216.725 29.928 216.837 30.44 217.061 30.808C217.301 31.176 217.709 31.36 218.285 31.36H219.941C220.101 31.36 220.237 31.416 220.349 31.528C220.461 31.64 220.517 31.776 220.517 31.936V33.424C220.517 33.584 220.461 33.72 220.349 33.832C220.237 33.944 220.101 34 219.941 34H217.997ZM223.223 34C223.063 34 222.927 33.944 222.815 33.832C222.703 33.72 222.646 33.584 222.646 33.424V22.12C222.646 21.944 222.703 21.8 222.815 21.688C222.927 21.576 223.063 21.52 223.223 21.52H225.167C225.327 21.52 225.463 21.576 225.575 21.688C225.703 21.8 225.767 21.944 225.767 22.12V23.104C226.135 22.592 226.607 22.2 227.183 21.928C227.775 21.656 228.455 21.52 229.223 21.52H230.207C230.383 21.52 230.519 21.576 230.615 21.688C230.727 21.8 230.783 21.936 230.783 22.096V23.824C230.783 23.984 230.727 24.12 230.615 24.232C230.519 24.344 230.383 24.4 230.207 24.4H228.335C227.567 24.4 226.967 24.616 226.535 25.048C226.119 25.48 225.911 26.072 225.911 26.824V33.424C225.911 33.584 225.855 33.72 225.743 33.832C225.631 33.944 225.487 34 225.311 34H223.223ZM237.286 34.24C236.31 34.24 235.462 34.024 234.742 33.592C234.038 33.144 233.494 32.52 233.11 31.72C232.726 30.904 232.534 29.944 232.534 28.84V22.096C232.534 21.936 232.59 21.8 232.702 21.688C232.814 21.576 232.95 21.52 233.11 21.52H235.222C235.398 21.52 235.534 21.576 235.63 21.688C235.742 21.8 235.798 21.936 235.798 22.096V28.696C235.798 30.68 236.67 31.672 238.414 31.672C239.246 31.672 239.902 31.408 240.382 30.88C240.878 30.352 241.126 29.624 241.126 28.696V22.096C241.126 21.936 241.182 21.8 241.294 21.688C241.406 21.576 241.542 21.52 241.702 21.52H243.814C243.974 21.52 244.11 21.576 244.222 21.688C244.334 21.8 244.39 21.936 244.39 22.096V33.424C244.39 33.584 244.334 33.72 244.222 33.832C244.11 33.944 243.974 34 243.814 34H241.87C241.694 34 241.55 33.944 241.438 33.832C241.342 33.72 241.294 33.584 241.294 33.424V32.44C240.862 33 240.326 33.44 239.686 33.76C239.046 34.08 238.246 34.24 237.286 34.24ZM252.961 34.24C251.809 34.24 250.793 34.024 249.913 33.592C249.049 33.16 248.369 32.536 247.873 31.72C247.393 30.888 247.129 29.888 247.081 28.72C247.065 28.48 247.057 28.168 247.057 27.784C247.057 27.384 247.065 27.056 247.081 26.8C247.129 25.632 247.393 24.64 247.873 23.824C248.369 22.992 249.049 22.36 249.913 21.928C250.793 21.496 251.809 21.28 252.961 21.28C253.985 21.28 254.857 21.424 255.577 21.712C256.297 22 256.889 22.36 257.353 22.792C257.817 23.224 258.161 23.68 258.385 24.16C258.625 24.624 258.753 25.048 258.769 25.432C258.785 25.608 258.729 25.752 258.601 25.864C258.489 25.96 258.353 26.008 258.193 26.008H256.081C255.921 26.008 255.793 25.968 255.697 25.888C255.617 25.808 255.537 25.688 255.457 25.528C255.217 24.888 254.897 24.44 254.497 24.184C254.113 23.912 253.617 23.776 253.009 23.776C252.209 23.776 251.569 24.032 251.089 24.544C250.625 25.04 250.377 25.832 250.345 26.92C250.313 27.528 250.313 28.088 250.345 28.6C250.377 29.704 250.625 30.504 251.089 31C251.569 31.496 252.209 31.744 253.009 31.744C253.633 31.744 254.137 31.616 254.521 31.36C254.905 31.088 255.217 30.632 255.457 29.992C255.537 29.832 255.617 29.712 255.697 29.632C255.793 29.552 255.921 29.512 256.081 29.512H258.193C258.353 29.512 258.489 29.568 258.601 29.68C258.729 29.776 258.785 29.912 258.769 30.088C258.753 30.376 258.673 30.704 258.529 31.072C258.401 31.424 258.185 31.792 257.881 32.176C257.593 32.544 257.225 32.888 256.777 33.208C256.329 33.512 255.785 33.76 255.145 33.952C254.521 34.144 253.793 34.24 252.961 34.24ZM266.912 34C265.952 34 265.144 33.832 264.488 33.496C263.832 33.16 263.344 32.664 263.024 32.008C262.704 31.336 262.544 30.504 262.544 29.512V24.064H260.648C260.488 24.064 260.352 24.008 260.24 23.896C260.128 23.784 260.072 23.648 260.072 23.488V22.096C260.072 21.936 260.128 21.8 260.24 21.688C260.352 21.576 260.488 21.52 260.648 21.52H262.544V17.536C262.544 17.376 262.592 17.24 262.688 17.128C262.799 17.016 262.944 16.96 263.12 16.96H265.064C265.224 16.96 265.36 17.016 265.472 17.128C265.584 17.24 265.64 17.376 265.64 17.536V21.52H268.64C268.8 21.52 268.936 21.576 269.048 21.688C269.16 21.8 269.216 21.936 269.216 22.096V23.488C269.216 23.648 269.16 23.784 269.048 23.896C268.936 24.008 268.8 24.064 268.64 24.064H265.64V29.272C265.64 29.928 265.752 30.44 265.976 30.808C266.216 31.176 266.624 31.36 267.2 31.36H268.856C269.016 31.36 269.152 31.416 269.264 31.528C269.376 31.64 269.432 31.776 269.432 31.936V33.424C269.432 33.584 269.376 33.72 269.264 33.832C269.152 33.944 269.016 34 268.856 34H266.912ZM276.193 34.24C275.217 34.24 274.369 34.024 273.649 33.592C272.945 33.144 272.401 32.52 272.017 31.72C271.633 30.904 271.441 29.944 271.441 28.84V22.096C271.441 21.936 271.497 21.8 271.609 21.688C271.721 21.576 271.857 21.52 272.017 21.52H274.129C274.305 21.52 274.441 21.576 274.537 21.688C274.649 21.8 274.705 21.936 274.705 22.096V28.696C274.705 30.68 275.577 31.672 277.321 31.672C278.153 31.672 278.809 31.408 279.289 30.88C279.785 30.352 280.033 29.624 280.033 28.696V22.096C280.033 21.936 280.089 21.8 280.201 21.688C280.313 21.576 280.449 21.52 280.609 21.52H282.721C282.881 21.52 283.017 21.576 283.129 21.688C283.241 21.8 283.297 21.936 283.297 22.096V33.424C283.297 33.584 283.241 33.72 283.129 33.832C283.017 33.944 282.881 34 282.721 34H280.777C280.601 34 280.457 33.944 280.345 33.832C280.249 33.72 280.201 33.584 280.201 33.424V32.44C279.769 33 279.233 33.44 278.593 33.76C277.953 34.08 277.153 34.24 276.193 34.24ZM287.043 34C286.883 34 286.747 33.944 286.635 33.832C286.523 33.72 286.467 33.584 286.467 33.424V22.12C286.467 21.944 286.523 21.8 286.635 21.688C286.747 21.576 286.883 21.52 287.043 21.52H288.987C289.147 21.52 289.283 21.576 289.395 21.688C289.523 21.8 289.587 21.944 289.587 22.12V23.104C289.955 22.592 290.427 22.2 291.003 21.928C291.595 21.656 292.275 21.52 293.043 21.52H294.027C294.203 21.52 294.339 21.576 294.435 21.688C294.547 21.8 294.603 21.936 294.603 22.096V23.824C294.603 23.984 294.547 24.12 294.435 24.232C294.339 24.344 294.203 24.4 294.027 24.4H292.155C291.387 24.4 290.787 24.616 290.355 25.048C289.939 25.48 289.731 26.072 289.731 26.824V33.424C289.731 33.584 289.675 33.72 289.563 33.832C289.451 33.944 289.307 34 289.131 34H287.043ZM301.687 34.24C299.911 34.24 298.503 33.728 297.463 32.704C296.423 31.68 295.863 30.224 295.783 28.336C295.767 28.176 295.759 27.976 295.759 27.736C295.759 27.48 295.767 27.28 295.783 27.136C295.847 25.936 296.119 24.896 296.599 24.016C297.095 23.136 297.775 22.464 298.639 22C299.503 21.52 300.519 21.28 301.687 21.28C302.983 21.28 304.071 21.552 304.951 22.096C305.831 22.624 306.495 23.368 306.943 24.328C307.391 25.272 307.615 26.368 307.615 27.616V28.12C307.615 28.28 307.559 28.416 307.447 28.528C307.335 28.64 307.191 28.696 307.015 28.696H299.047C299.047 28.696 299.047 28.72 299.047 28.768C299.047 28.816 299.047 28.856 299.047 28.888C299.063 29.448 299.167 29.968 299.359 30.448C299.567 30.912 299.863 31.288 300.247 31.576C300.647 31.864 301.119 32.008 301.663 32.008C302.111 32.008 302.487 31.944 302.791 31.816C303.095 31.672 303.343 31.512 303.535 31.336C303.727 31.16 303.863 31.016 303.943 30.904C304.087 30.712 304.199 30.6 304.279 30.568C304.375 30.52 304.511 30.496 304.687 30.496H306.751C306.911 30.496 307.039 30.544 307.135 30.64C307.247 30.736 307.295 30.856 307.279 31C307.263 31.256 307.127 31.568 306.871 31.936C306.631 32.304 306.279 32.664 305.815 33.016C305.351 33.368 304.767 33.664 304.063 33.904C303.375 34.128 302.583 34.24 301.687 34.24ZM299.047 26.68H304.351V26.608C304.351 25.984 304.247 25.44 304.039 24.976C303.831 24.512 303.527 24.144 303.127 23.872C302.727 23.6 302.247 23.464 301.687 23.464C301.127 23.464 300.647 23.6 300.247 23.872C299.847 24.144 299.543 24.512 299.335 24.976C299.143 25.44 299.047 25.984 299.047 26.608V26.68ZM314.794 34.24C313.962 34.24 313.226 34.104 312.586 33.832C311.962 33.544 311.442 33.144 311.026 32.632C310.61 32.12 310.29 31.52 310.066 30.832C309.842 30.128 309.714 29.36 309.682 28.528C309.666 28.24 309.658 27.984 309.658 27.76C309.658 27.52 309.666 27.256 309.682 26.968C309.714 26.168 309.834 25.424 310.042 24.736C310.266 24.048 310.586 23.448 311.002 22.936C311.434 22.408 311.962 22 312.586 21.712C313.226 21.424 313.962 21.28 314.794 21.28C315.658 21.28 316.386 21.432 316.978 21.736C317.586 22.024 318.09 22.4 318.49 22.864V17.536C318.49 17.376 318.538 17.24 318.634 17.128C318.746 17.016 318.89 16.96 319.066 16.96H321.106C321.266 16.96 321.402 17.016 321.514 17.128C321.626 17.24 321.682 17.376 321.682 17.536V33.424C321.682 33.584 321.626 33.72 321.514 33.832C321.402 33.944 321.266 34 321.106 34H319.21C319.034 34 318.89 33.944 318.778 33.832C318.682 33.72 318.634 33.584 318.634 33.424V32.536C318.234 33.032 317.722 33.44 317.098 33.76C316.49 34.08 315.722 34.24 314.794 34.24ZM315.682 31.672C316.354 31.672 316.89 31.52 317.29 31.216C317.69 30.912 317.986 30.528 318.178 30.064C318.37 29.584 318.474 29.096 318.49 28.6C318.506 28.312 318.514 28.008 318.514 27.688C318.514 27.352 318.506 27.04 318.49 26.752C318.474 26.272 318.362 25.816 318.154 25.384C317.946 24.936 317.642 24.568 317.242 24.28C316.842 23.992 316.322 23.848 315.682 23.848C315.01 23.848 314.474 24 314.074 24.304C313.69 24.592 313.41 24.976 313.234 25.456C313.058 25.936 312.954 26.464 312.922 27.04C312.906 27.52 312.906 28 312.922 28.48C312.954 29.056 313.058 29.584 313.234 30.064C313.41 30.544 313.69 30.936 314.074 31.24C314.474 31.528 315.01 31.672 315.682 31.672ZM137.472 62C137.296 62 137.152 61.944 137.04 61.832C136.928 61.72 136.872 61.584 136.872 61.424V45.8C136.872 45.624 136.928 45.48 137.04 45.368C137.152 45.256 137.296 45.2 137.472 45.2H139.368C139.592 45.2 139.76 45.264 139.872 45.392C139.984 45.504 140.056 45.592 140.088 45.656L144.72 54.296L149.4 45.656C149.432 45.592 149.504 45.504 149.616 45.392C149.728 45.264 149.896 45.2 150.12 45.2H151.992C152.168 45.2 152.312 45.256 152.424 45.368C152.536 45.48 152.592 45.624 152.592 45.8V61.424C152.592 61.584 152.536 61.72 152.424 61.832C152.312 61.944 152.168 62 151.992 62H149.976C149.8 62 149.656 61.944 149.544 61.832C149.448 61.72 149.4 61.584 149.4 61.424V51.032L146.04 57.44C145.96 57.584 145.856 57.712 145.728 57.824C145.6 57.92 145.432 57.968 145.224 57.968H144.24C144.016 57.968 143.84 57.92 143.712 57.824C143.6 57.712 143.504 57.584 143.424 57.44L140.064 51.032V61.424C140.064 61.584 140.008 61.72 139.896 61.832C139.784 61.944 139.648 62 139.488 62H137.472ZM161.413 62.24C159.637 62.24 158.229 61.728 157.189 60.704C156.149 59.68 155.589 58.224 155.509 56.336C155.493 56.176 155.485 55.976 155.485 55.736C155.485 55.48 155.493 55.28 155.509 55.136C155.573 53.936 155.845 52.896 156.325 52.016C156.821 51.136 157.501 50.464 158.365 50C159.229 49.52 160.245 49.28 161.413 49.28C162.709 49.28 163.797 49.552 164.677 50.096C165.557 50.624 166.221 51.368 166.669 52.328C167.117 53.272 167.341 54.368 167.341 55.616V56.12C167.341 56.28 167.285 56.416 167.173 56.528C167.061 56.64 166.917 56.696 166.741 56.696H158.773C158.773 56.696 158.773 56.72 158.773 56.768C158.773 56.816 158.773 56.856 158.773 56.888C158.789 57.448 158.893 57.968 159.085 58.448C159.293 58.912 159.589 59.288 159.973 59.576C160.373 59.864 160.845 60.008 161.389 60.008C161.837 60.008 162.213 59.944 162.517 59.816C162.821 59.672 163.069 59.512 163.261 59.336C163.453 59.16 163.589 59.016 163.669 58.904C163.813 58.712 163.925 58.6 164.005 58.568C164.101 58.52 164.237 58.496 164.413 58.496H166.477C166.637 58.496 166.765 58.544 166.861 58.64C166.973 58.736 167.021 58.856 167.005 59C166.989 59.256 166.853 59.568 166.597 59.936C166.357 60.304 166.005 60.664 165.541 61.016C165.077 61.368 164.493 61.664 163.789 61.904C163.101 62.128 162.309 62.24 161.413 62.24ZM158.773 54.68H164.077V54.608C164.077 53.984 163.973 53.44 163.765 52.976C163.557 52.512 163.253 52.144 162.853 51.872C162.453 51.6 161.973 51.464 161.413 51.464C160.853 51.464 160.373 51.6 159.973 51.872C159.573 52.144 159.269 52.512 159.061 52.976C158.869 53.44 158.773 53.984 158.773 54.608V54.68ZM175.265 62.24C173.489 62.24 172.081 61.728 171.041 60.704C170.001 59.68 169.441 58.224 169.361 56.336C169.345 56.176 169.337 55.976 169.337 55.736C169.337 55.48 169.345 55.28 169.361 55.136C169.425 53.936 169.697 52.896 170.177 52.016C170.673 51.136 171.353 50.464 172.217 50C173.081 49.52 174.097 49.28 175.265 49.28C176.561 49.28 177.649 49.552 178.529 50.096C179.409 50.624 180.073 51.368 180.521 52.328C180.969 53.272 181.193 54.368 181.193 55.616V56.12C181.193 56.28 181.137 56.416 181.025 56.528C180.913 56.64 180.769 56.696 180.593 56.696H172.625C172.625 56.696 172.625 56.72 172.625 56.768C172.625 56.816 172.625 56.856 172.625 56.888C172.641 57.448 172.745 57.968 172.937 58.448C173.145 58.912 173.441 59.288 173.825 59.576C174.225 59.864 174.697 60.008 175.241 60.008C175.689 60.008 176.065 59.944 176.369 59.816C176.673 59.672 176.921 59.512 177.113 59.336C177.305 59.16 177.441 59.016 177.521 58.904C177.665 58.712 177.777 58.6 177.857 58.568C177.953 58.52 178.089 58.496 178.265 58.496H180.329C180.489 58.496 180.617 58.544 180.713 58.64C180.825 58.736 180.873 58.856 180.857 59C180.841 59.256 180.705 59.568 180.449 59.936C180.209 60.304 179.857 60.664 179.393 61.016C178.929 61.368 178.345 61.664 177.641 61.904C176.953 62.128 176.161 62.24 175.265 62.24ZM172.625 54.68H177.929V54.608C177.929 53.984 177.825 53.44 177.617 52.976C177.409 52.512 177.105 52.144 176.705 51.872C176.305 51.6 175.825 51.464 175.265 51.464C174.705 51.464 174.225 51.6 173.825 51.872C173.425 52.144 173.121 52.512 172.913 52.976C172.721 53.44 172.625 53.984 172.625 54.608V54.68ZM189.333 62C188.373 62 187.565 61.832 186.909 61.496C186.253 61.16 185.765 60.664 185.445 60.008C185.125 59.336 184.965 58.504 184.965 57.512V52.064H183.069C182.909 52.064 182.773 52.008 182.661 51.896C182.549 51.784 182.493 51.648 182.493 51.488V50.096C182.493 49.936 182.549 49.8 182.661 49.688C182.773 49.576 182.909 49.52 183.069 49.52H184.965V45.536C184.965 45.376 185.013 45.24 185.109 45.128C185.221 45.016 185.365 44.96 185.541 44.96H187.485C187.645 44.96 187.781 45.016 187.893 45.128C188.005 45.24 188.061 45.376 188.061 45.536V49.52H191.061C191.221 49.52 191.357 49.576 191.469 49.688C191.581 49.8 191.637 49.936 191.637 50.096V51.488C191.637 51.648 191.581 51.784 191.469 51.896C191.357 52.008 191.221 52.064 191.061 52.064H188.061V57.272C188.061 57.928 188.173 58.44 188.397 58.808C188.637 59.176 189.045 59.36 189.621 59.36H191.277C191.437 59.36 191.573 59.416 191.685 59.528C191.797 59.64 191.853 59.776 191.853 59.936V61.424C191.853 61.584 191.797 61.72 191.685 61.832C191.573 61.944 191.437 62 191.277 62H189.333ZM194.558 62C194.398 62 194.262 61.944 194.15 61.832C194.038 61.72 193.982 61.584 193.982 61.424V50.096C193.982 49.936 194.038 49.8 194.15 49.688C194.262 49.576 194.398 49.52 194.558 49.52H196.55C196.726 49.52 196.862 49.576 196.958 49.688C197.07 49.8 197.126 49.936 197.126 50.096V61.424C197.126 61.584 197.07 61.72 196.958 61.832C196.862 61.944 196.726 62 196.55 62H194.558ZM194.462 47.456C194.286 47.456 194.142 47.408 194.03 47.312C193.934 47.2 193.886 47.056 193.886 46.88V45.152C193.886 44.992 193.934 44.856 194.03 44.744C194.142 44.632 194.286 44.576 194.462 44.576H196.646C196.822 44.576 196.966 44.632 197.078 44.744C197.19 44.856 197.246 44.992 197.246 45.152V46.88C197.246 47.056 197.19 47.2 197.078 47.312C196.966 47.408 196.822 47.456 196.646 47.456H194.462ZM201.379 62C201.219 62 201.083 61.944 200.971 61.832C200.859 61.72 200.803 61.584 200.803 61.424V50.096C200.803 49.936 200.859 49.8 200.971 49.688C201.083 49.576 201.219 49.52 201.379 49.52H203.347C203.507 49.52 203.643 49.576 203.755 49.688C203.867 49.8 203.923 49.936 203.923 50.096V51.08C204.339 50.568 204.867 50.144 205.507 49.808C206.163 49.456 206.971 49.28 207.931 49.28C208.907 49.28 209.755 49.504 210.475 49.952C211.195 50.384 211.747 51 212.131 51.8C212.531 52.6 212.731 53.56 212.731 54.68V61.424C212.731 61.584 212.675 61.72 212.563 61.832C212.451 61.944 212.315 62 212.155 62H210.043C209.883 62 209.747 61.944 209.635 61.832C209.523 61.72 209.467 61.584 209.467 61.424V54.824C209.467 53.896 209.235 53.168 208.771 52.64C208.323 52.112 207.667 51.848 206.803 51.848C205.971 51.848 205.307 52.112 204.811 52.64C204.315 53.168 204.067 53.896 204.067 54.824V61.424C204.067 61.584 204.011 61.72 203.899 61.832C203.787 61.944 203.651 62 203.491 62H201.379ZM221.419 67.28C220.251 67.28 219.291 67.128 218.539 66.824C217.787 66.52 217.195 66.152 216.763 65.72C216.331 65.288 216.019 64.856 215.827 64.424C215.651 64.008 215.555 63.68 215.539 63.44C215.523 63.28 215.571 63.136 215.683 63.008C215.811 62.896 215.955 62.84 216.115 62.84H218.203C218.363 62.84 218.491 62.872 218.587 62.936C218.683 63.016 218.763 63.152 218.827 63.344C218.923 63.552 219.051 63.776 219.211 64.016C219.371 64.256 219.611 64.456 219.931 64.616C220.267 64.792 220.723 64.88 221.299 64.88C221.907 64.88 222.419 64.792 222.835 64.616C223.251 64.44 223.563 64.144 223.771 63.728C223.995 63.312 224.107 62.736 224.107 62V60.368C223.723 60.832 223.227 61.208 222.619 61.496C222.027 61.784 221.291 61.928 220.411 61.928C219.547 61.928 218.803 61.792 218.179 61.52C217.555 61.232 217.035 60.84 216.619 60.344C216.203 59.832 215.883 59.232 215.659 58.544C215.451 57.856 215.331 57.096 215.299 56.264C215.283 55.832 215.283 55.4 215.299 54.968C215.331 54.168 215.451 53.424 215.659 52.736C215.867 52.048 216.179 51.448 216.595 50.936C217.027 50.408 217.555 50 218.179 49.712C218.803 49.424 219.547 49.28 220.411 49.28C221.323 49.28 222.091 49.456 222.715 49.808C223.339 50.144 223.851 50.568 224.251 51.08V50.12C224.251 49.944 224.307 49.8 224.419 49.688C224.531 49.576 224.667 49.52 224.827 49.52H226.771C226.931 49.52 227.067 49.576 227.179 49.688C227.291 49.8 227.347 49.944 227.347 50.12L227.371 61.688C227.371 62.84 227.155 63.832 226.723 64.664C226.291 65.496 225.635 66.136 224.755 66.584C223.891 67.048 222.779 67.28 221.419 67.28ZM221.299 59.384C221.955 59.384 222.483 59.24 222.883 58.952C223.283 58.664 223.579 58.288 223.771 57.824C223.963 57.36 224.075 56.888 224.107 56.408C224.123 56.2 224.131 55.936 224.131 55.616C224.131 55.296 224.123 55.04 224.107 54.848C224.075 54.352 223.963 53.88 223.771 53.432C223.579 52.968 223.283 52.592 222.883 52.304C222.483 52 221.955 51.848 221.299 51.848C220.643 51.848 220.115 52 219.715 52.304C219.315 52.592 219.027 52.976 218.851 53.456C218.691 53.936 218.595 54.464 218.563 55.04C218.531 55.424 218.531 55.816 218.563 56.216C218.595 56.776 218.691 57.304 218.851 57.8C219.027 58.28 219.315 58.664 219.715 58.952C220.115 59.24 220.643 59.384 221.299 59.384ZM236.917 62C236.757 62 236.621 61.944 236.509 61.832C236.397 61.72 236.341 61.584 236.341 61.424V45.8C236.341 45.624 236.397 45.48 236.509 45.368C236.621 45.256 236.757 45.2 236.917 45.2H238.765C238.989 45.2 239.149 45.256 239.245 45.368C239.357 45.464 239.429 45.536 239.461 45.584L246.373 56.336V45.8C246.373 45.624 246.421 45.48 246.517 45.368C246.629 45.256 246.773 45.2 246.949 45.2H248.965C249.141 45.2 249.285 45.256 249.397 45.368C249.509 45.48 249.565 45.624 249.565 45.8V61.4C249.565 61.576 249.509 61.72 249.397 61.832C249.285 61.944 249.149 62 248.989 62H247.117C246.893 62 246.733 61.944 246.637 61.832C246.541 61.72 246.469 61.648 246.421 61.616L239.533 51.104V61.424C239.533 61.584 239.477 61.72 239.365 61.832C239.253 61.944 239.109 62 238.933 62H236.917ZM258.542 62.24C257.262 62.24 256.182 62.016 255.302 61.568C254.438 61.12 253.774 60.488 253.31 59.672C252.862 58.856 252.606 57.904 252.542 56.816C252.526 56.528 252.518 56.176 252.518 55.76C252.518 55.344 252.526 54.992 252.542 54.704C252.606 53.6 252.87 52.648 253.334 51.848C253.814 51.032 254.486 50.4 255.35 49.952C256.23 49.504 257.294 49.28 258.542 49.28C259.79 49.28 260.846 49.504 261.71 49.952C262.59 50.4 263.262 51.032 263.726 51.848C264.206 52.648 264.478 53.6 264.542 54.704C264.558 54.992 264.566 55.344 264.566 55.76C264.566 56.176 264.558 56.528 264.542 56.816C264.478 57.904 264.214 58.856 263.75 59.672C263.302 60.488 262.638 61.12 261.758 61.568C260.894 62.016 259.822 62.24 258.542 62.24ZM258.542 59.864C259.39 59.864 260.046 59.6 260.51 59.072C260.974 58.528 261.23 57.736 261.278 56.696C261.294 56.456 261.302 56.144 261.302 55.76C261.302 55.376 261.294 55.064 261.278 54.824C261.23 53.8 260.974 53.016 260.51 52.472C260.046 51.928 259.39 51.656 258.542 51.656C257.694 51.656 257.038 51.928 256.574 52.472C256.11 53.016 255.854 53.8 255.806 54.824C255.79 55.064 255.782 55.376 255.782 55.76C255.782 56.144 255.79 56.456 255.806 56.696C255.854 57.736 256.11 58.528 256.574 59.072C257.038 59.6 257.694 59.864 258.542 59.864ZM272.771 62C271.811 62 271.003 61.832 270.347 61.496C269.691 61.16 269.203 60.664 268.883 60.008C268.563 59.336 268.403 58.504 268.403 57.512V52.064H266.507C266.347 52.064 266.211 52.008 266.099 51.896C265.987 51.784 265.931 51.648 265.931 51.488V50.096C265.931 49.936 265.987 49.8 266.099 49.688C266.211 49.576 266.347 49.52 266.507 49.52H268.403V45.536C268.403 45.376 268.451 45.24 268.547 45.128C268.659 45.016 268.803 44.96 268.979 44.96H270.923C271.083 44.96 271.219 45.016 271.331 45.128C271.443 45.24 271.499 45.376 271.499 45.536V49.52H274.499C274.659 49.52 274.795 49.576 274.907 49.688C275.019 49.8 275.075 49.936 275.075 50.096V51.488C275.075 51.648 275.019 51.784 274.907 51.896C274.795 52.008 274.659 52.064 274.499 52.064H271.499V57.272C271.499 57.928 271.611 58.44 271.835 58.808C272.075 59.176 272.483 59.36 273.059 59.36H274.715C274.875 59.36 275.011 59.416 275.123 59.528C275.235 59.64 275.291 59.776 275.291 59.936V61.424C275.291 61.584 275.235 61.72 275.123 61.832C275.011 61.944 274.875 62 274.715 62H272.771ZM282.796 62.24C281.02 62.24 279.612 61.728 278.572 60.704C277.532 59.68 276.972 58.224 276.892 56.336C276.876 56.176 276.868 55.976 276.868 55.736C276.868 55.48 276.876 55.28 276.892 55.136C276.956 53.936 277.228 52.896 277.708 52.016C278.204 51.136 278.884 50.464 279.748 50C280.612 49.52 281.628 49.28 282.796 49.28C284.092 49.28 285.18 49.552 286.06 50.096C286.94 50.624 287.604 51.368 288.052 52.328C288.5 53.272 288.724 54.368 288.724 55.616V56.12C288.724 56.28 288.668 56.416 288.556 56.528C288.444 56.64 288.3 56.696 288.124 56.696H280.156C280.156 56.696 280.156 56.72 280.156 56.768C280.156 56.816 280.156 56.856 280.156 56.888C280.172 57.448 280.276 57.968 280.468 58.448C280.676 58.912 280.972 59.288 281.356 59.576C281.756 59.864 282.228 60.008 282.772 60.008C283.22 60.008 283.596 59.944 283.9 59.816C284.204 59.672 284.452 59.512 284.644 59.336C284.836 59.16 284.972 59.016 285.052 58.904C285.196 58.712 285.308 58.6 285.388 58.568C285.484 58.52 285.62 58.496 285.796 58.496H287.86C288.02 58.496 288.148 58.544 288.244 58.64C288.356 58.736 288.404 58.856 288.388 59C288.372 59.256 288.236 59.568 287.98 59.936C287.74 60.304 287.388 60.664 286.924 61.016C286.46 61.368 285.876 61.664 285.172 61.904C284.484 62.128 283.692 62.24 282.796 62.24ZM280.156 54.68H285.46V54.608C285.46 53.984 285.356 53.44 285.148 52.976C284.94 52.512 284.636 52.144 284.236 51.872C283.836 51.6 283.356 51.464 282.796 51.464C282.236 51.464 281.756 51.6 281.356 51.872C280.956 52.144 280.652 52.512 280.444 52.976C280.252 53.44 280.156 53.984 280.156 54.608V54.68ZM296 62.24C295.04 62.24 294.216 62.128 293.528 61.904C292.856 61.68 292.304 61.4 291.872 61.064C291.44 60.728 291.12 60.392 290.912 60.056C290.704 59.72 290.592 59.44 290.576 59.216C290.56 59.04 290.608 58.904 290.72 58.808C290.848 58.696 290.984 58.64 291.128 58.64H293.024C293.088 58.64 293.144 58.648 293.192 58.664C293.24 58.68 293.304 58.728 293.384 58.808C293.592 58.984 293.808 59.168 294.032 59.36C294.272 59.552 294.552 59.72 294.872 59.864C295.192 59.992 295.592 60.056 296.072 60.056C296.696 60.056 297.216 59.936 297.632 59.696C298.064 59.44 298.28 59.08 298.28 58.616C298.28 58.28 298.184 58.008 297.992 57.8C297.816 57.592 297.48 57.408 296.984 57.248C296.488 57.072 295.784 56.888 294.872 56.696C293.976 56.488 293.232 56.224 292.64 55.904C292.048 55.584 291.608 55.184 291.32 54.704C291.032 54.224 290.888 53.664 290.888 53.024C290.888 52.4 291.072 51.808 291.44 51.248C291.824 50.672 292.384 50.2 293.12 49.832C293.872 49.464 294.8 49.28 295.904 49.28C296.768 49.28 297.52 49.392 298.16 49.616C298.8 49.824 299.328 50.088 299.744 50.408C300.176 50.728 300.504 51.056 300.728 51.392C300.952 51.712 301.072 51.992 301.088 52.232C301.104 52.408 301.056 52.552 300.944 52.664C300.832 52.76 300.704 52.808 300.56 52.808H298.784C298.704 52.808 298.632 52.792 298.568 52.76C298.504 52.728 298.44 52.688 298.376 52.64C298.2 52.48 298.008 52.312 297.8 52.136C297.592 51.96 297.336 51.808 297.032 51.68C296.744 51.536 296.36 51.464 295.88 51.464C295.272 51.464 294.808 51.6 294.488 51.872C294.168 52.128 294.008 52.456 294.008 52.856C294.008 53.128 294.08 53.368 294.224 53.576C294.384 53.768 294.696 53.952 295.16 54.128C295.624 54.304 296.328 54.488 297.272 54.68C298.344 54.872 299.192 55.16 299.816 55.544C300.456 55.912 300.904 56.344 301.16 56.84C301.432 57.32 301.568 57.856 301.568 58.448C301.568 59.168 301.352 59.816 300.92 60.392C300.504 60.968 299.88 61.424 299.048 61.76C298.232 62.08 297.216 62.24 296 62.24Z" fill="white"/>
</svg>
