<svg width="34" height="35" viewBox="0 0 34 35" fill="none" xmlns="http://www.w3.org/2000/svg">
<path d="M28.776 5.31126C27.2242 3.74368 25.3757 2.5008 23.3385 1.65509C21.3012 0.809389 19.116 0.377792 16.9102 0.385477C7.66797 0.385477 0.135417 7.91803 0.135417 17.1602C0.135417 20.1225 0.914063 23.0001 2.36979 25.5391L0 34.2396L8.88672 31.9037C11.3411 33.2409 14.1003 33.9519 16.9102 33.9519C26.1523 33.9519 33.6849 26.4193 33.6849 17.1771C33.6849 12.6915 31.9414 8.47662 28.776 5.31126ZM16.9102 31.1081C14.4049 31.1081 11.9505 30.431 9.80078 29.1615L9.29297 28.8568L4.01172 30.2449L5.41667 25.099L5.07813 24.5743C3.68629 22.3517 2.94724 19.7826 2.94531 17.1602C2.94531 9.47532 9.20833 3.2123 16.8932 3.2123C20.6172 3.2123 24.1211 4.66803 26.7448 7.30865C28.0439 8.60182 29.0735 10.14 29.7737 11.834C30.474 13.528 30.831 15.3441 30.8242 17.1771C30.8581 24.862 24.5951 31.1081 16.9102 31.1081ZM24.5612 20.681C24.138 20.4779 22.0729 19.4623 21.7005 19.31C21.3112 19.1745 21.0404 19.1068 20.7526 19.5131C20.4648 19.9363 19.6693 20.8842 19.4323 21.155C19.1953 21.4428 18.9414 21.4766 18.5182 21.2566C18.0951 21.0534 16.7409 20.5964 15.1497 19.1745C13.8971 18.0574 13.0677 16.6863 12.8138 16.2631C12.5768 15.8399 12.7799 15.6199 13 15.3998C13.1862 15.2136 13.4232 14.9089 13.6263 14.6719C13.8294 14.435 13.9141 14.2488 14.0495 13.9779C14.1849 13.6902 14.1172 13.4532 14.0156 13.2501C13.9141 13.0469 13.0677 10.9818 12.7292 10.1355C12.3906 9.32298 12.0352 9.42454 11.7812 9.40761H10.9687C10.681 9.40761 10.2409 9.50917 9.85156 9.93235C9.47917 10.3555 8.39583 11.3712 8.39583 13.4363C8.39583 15.5014 9.90234 17.4988 10.1055 17.7696C10.3086 18.0574 13.0677 22.2891 17.2656 24.1003C18.2643 24.5404 19.043 24.7943 19.6523 24.9805C20.651 25.3021 21.5651 25.2514 22.293 25.1498C23.1055 25.0313 24.7812 24.1342 25.1198 23.1524C25.4753 22.1706 25.4753 21.3412 25.3568 21.155C25.2383 20.9688 24.9844 20.8842 24.5612 20.681Z" fill="#D9D9D9"/>
</svg>
